G04 #@! TF.GenerationSoftware,KiCad,Pcbnew,(5.1.9)-1*
G04 #@! TF.CreationDate,2021-05-10T17:03:18+09:00*
G04 #@! TF.ProjectId,part02,70617274-3032-42e6-9b69-6361645f7063,rev?*
G04 #@! TF.SameCoordinates,Original*
G04 #@! TF.FileFunction,Soldermask,Top*
G04 #@! TF.FilePolarity,Negative*
%FSLAX46Y46*%
G04 Gerber Fmt 4.6, Leading zero omitted, Abs format (unit mm)*
G04 Created by KiCad (PCBNEW (5.1.9)-1) date 2021-05-10 17:03:18*
%MOMM*%
%LPD*%
G01*
G04 APERTURE LIST*
%ADD10C,0.100000*%
%ADD11R,1.000000X1.700000*%
%ADD12R,0.700000X0.300000*%
%ADD13O,1.700000X1.700000*%
%ADD14R,1.700000X1.700000*%
%ADD15C,1.350000*%
%ADD16R,1.350000X1.350000*%
%ADD17R,1.050000X0.650000*%
%ADD18R,1.450000X0.590000*%
%ADD19R,0.845299X0.304800*%
%ADD20R,0.200000X0.800000*%
%ADD21R,0.875000X0.800000*%
%ADD22R,0.800000X0.200000*%
%ADD23R,0.700000X0.200000*%
%ADD24R,0.200000X0.700000*%
%ADD25R,1.524000X1.524000*%
%ADD26C,1.524000*%
%ADD27R,1.320800X0.558800*%
%ADD28R,0.508000X0.504800*%
%ADD29C,1.416000*%
%ADD30R,0.940000X0.730000*%
%ADD31R,0.730000X0.940000*%
%ADD32R,1.000000X0.950000*%
%ADD33R,0.950000X1.000000*%
%ADD34R,0.950000X0.800000*%
%ADD35R,2.200000X0.850000*%
%ADD36R,1.200000X0.850000*%
G04 APERTURE END LIST*
D10*
G36*
X100936916Y-77057772D02*
G01*
X100738927Y-76859783D01*
X101778374Y-75820336D01*
X101976363Y-76018325D01*
X100936916Y-77057772D01*
G37*
G36*
X101290469Y-77411326D02*
G01*
X101092480Y-77213337D01*
X102131927Y-76173890D01*
X102329916Y-76371879D01*
X101290469Y-77411326D01*
G37*
G36*
X101644023Y-77764879D02*
G01*
X101446034Y-77566890D01*
X102485481Y-76527443D01*
X102683470Y-76725432D01*
X101644023Y-77764879D01*
G37*
G36*
X101997576Y-78118432D02*
G01*
X101799587Y-77920443D01*
X102839034Y-76880996D01*
X103037023Y-77078985D01*
X101997576Y-78118432D01*
G37*
G36*
X102351130Y-78471986D02*
G01*
X102153141Y-78273997D01*
X103192588Y-77234550D01*
X103390577Y-77432539D01*
X102351130Y-78471986D01*
G37*
G36*
X102704683Y-78825539D02*
G01*
X102506694Y-78627550D01*
X103546141Y-77588103D01*
X103744130Y-77786092D01*
X102704683Y-78825539D01*
G37*
G36*
X103058236Y-79179092D02*
G01*
X102860247Y-78981103D01*
X103899694Y-77941656D01*
X104097683Y-78139645D01*
X103058236Y-79179092D01*
G37*
G36*
X103411790Y-79532646D02*
G01*
X103213801Y-79334657D01*
X104253248Y-78295210D01*
X104451237Y-78493199D01*
X103411790Y-79532646D01*
G37*
G36*
X103765343Y-79886199D02*
G01*
X103567354Y-79688210D01*
X104606801Y-78648763D01*
X104804790Y-78846752D01*
X103765343Y-79886199D01*
G37*
G36*
X104118897Y-80239753D02*
G01*
X103920908Y-80041764D01*
X104960355Y-79002317D01*
X105158344Y-79200306D01*
X104118897Y-80239753D01*
G37*
G36*
X104472450Y-80593306D02*
G01*
X104274461Y-80395317D01*
X105313908Y-79355870D01*
X105511897Y-79553859D01*
X104472450Y-80593306D01*
G37*
G36*
X104826003Y-80946859D02*
G01*
X104628014Y-80748870D01*
X105667461Y-79709423D01*
X105865450Y-79907412D01*
X104826003Y-80946859D01*
G37*
G36*
X105179557Y-81300413D02*
G01*
X104981568Y-81102424D01*
X106021015Y-80062977D01*
X106219004Y-80260966D01*
X105179557Y-81300413D01*
G37*
G36*
X105533110Y-81653966D02*
G01*
X105335121Y-81455977D01*
X106374568Y-80416530D01*
X106572557Y-80614519D01*
X105533110Y-81653966D01*
G37*
G36*
X105886663Y-82007520D02*
G01*
X105688674Y-81809531D01*
X106728121Y-80770084D01*
X106926110Y-80968073D01*
X105886663Y-82007520D01*
G37*
G36*
X106240217Y-82361073D02*
G01*
X106042228Y-82163084D01*
X107081675Y-81123637D01*
X107279664Y-81321626D01*
X106240217Y-82361073D01*
G37*
G36*
X98221626Y-90379664D02*
G01*
X98023637Y-90181675D01*
X99063084Y-89142228D01*
X99261073Y-89340217D01*
X98221626Y-90379664D01*
G37*
G36*
X97868073Y-90026110D02*
G01*
X97670084Y-89828121D01*
X98709531Y-88788674D01*
X98907520Y-88986663D01*
X97868073Y-90026110D01*
G37*
G36*
X97514519Y-89672557D02*
G01*
X97316530Y-89474568D01*
X98355977Y-88435121D01*
X98553966Y-88633110D01*
X97514519Y-89672557D01*
G37*
G36*
X97160966Y-89319004D02*
G01*
X96962977Y-89121015D01*
X98002424Y-88081568D01*
X98200413Y-88279557D01*
X97160966Y-89319004D01*
G37*
G36*
X96807412Y-88965450D02*
G01*
X96609423Y-88767461D01*
X97648870Y-87728014D01*
X97846859Y-87926003D01*
X96807412Y-88965450D01*
G37*
G36*
X96453859Y-88611897D02*
G01*
X96255870Y-88413908D01*
X97295317Y-87374461D01*
X97493306Y-87572450D01*
X96453859Y-88611897D01*
G37*
G36*
X96100306Y-88258344D02*
G01*
X95902317Y-88060355D01*
X96941764Y-87020908D01*
X97139753Y-87218897D01*
X96100306Y-88258344D01*
G37*
G36*
X95746752Y-87904790D02*
G01*
X95548763Y-87706801D01*
X96588210Y-86667354D01*
X96786199Y-86865343D01*
X95746752Y-87904790D01*
G37*
G36*
X95393199Y-87551237D02*
G01*
X95195210Y-87353248D01*
X96234657Y-86313801D01*
X96432646Y-86511790D01*
X95393199Y-87551237D01*
G37*
G36*
X95039645Y-87197683D02*
G01*
X94841656Y-86999694D01*
X95881103Y-85960247D01*
X96079092Y-86158236D01*
X95039645Y-87197683D01*
G37*
G36*
X94686092Y-86844130D02*
G01*
X94488103Y-86646141D01*
X95527550Y-85606694D01*
X95725539Y-85804683D01*
X94686092Y-86844130D01*
G37*
G36*
X94332539Y-86490577D02*
G01*
X94134550Y-86292588D01*
X95173997Y-85253141D01*
X95371986Y-85451130D01*
X94332539Y-86490577D01*
G37*
G36*
X93978985Y-86137023D02*
G01*
X93780996Y-85939034D01*
X94820443Y-84899587D01*
X95018432Y-85097576D01*
X93978985Y-86137023D01*
G37*
G36*
X93625432Y-85783470D02*
G01*
X93427443Y-85585481D01*
X94466890Y-84546034D01*
X94664879Y-84744023D01*
X93625432Y-85783470D01*
G37*
G36*
X93271879Y-85429916D02*
G01*
X93073890Y-85231927D01*
X94113337Y-84192480D01*
X94311326Y-84390469D01*
X93271879Y-85429916D01*
G37*
G36*
X92918325Y-85076363D02*
G01*
X92720336Y-84878374D01*
X93759783Y-83838927D01*
X93957772Y-84036916D01*
X92918325Y-85076363D01*
G37*
G36*
X93759783Y-82361073D02*
G01*
X92720336Y-81321626D01*
X92918325Y-81123637D01*
X93957772Y-82163084D01*
X93759783Y-82361073D01*
G37*
G36*
X94113337Y-82007520D02*
G01*
X93073890Y-80968073D01*
X93271879Y-80770084D01*
X94311326Y-81809531D01*
X94113337Y-82007520D01*
G37*
G36*
X94466890Y-81653966D02*
G01*
X93427443Y-80614519D01*
X93625432Y-80416530D01*
X94664879Y-81455977D01*
X94466890Y-81653966D01*
G37*
G36*
X94820443Y-81300413D02*
G01*
X93780996Y-80260966D01*
X93978985Y-80062977D01*
X95018432Y-81102424D01*
X94820443Y-81300413D01*
G37*
G36*
X95173997Y-80946859D02*
G01*
X94134550Y-79907412D01*
X94332539Y-79709423D01*
X95371986Y-80748870D01*
X95173997Y-80946859D01*
G37*
G36*
X95527550Y-80593306D02*
G01*
X94488103Y-79553859D01*
X94686092Y-79355870D01*
X95725539Y-80395317D01*
X95527550Y-80593306D01*
G37*
G36*
X95881103Y-80239753D02*
G01*
X94841656Y-79200306D01*
X95039645Y-79002317D01*
X96079092Y-80041764D01*
X95881103Y-80239753D01*
G37*
G36*
X96234657Y-79886199D02*
G01*
X95195210Y-78846752D01*
X95393199Y-78648763D01*
X96432646Y-79688210D01*
X96234657Y-79886199D01*
G37*
G36*
X96588210Y-79532646D02*
G01*
X95548763Y-78493199D01*
X95746752Y-78295210D01*
X96786199Y-79334657D01*
X96588210Y-79532646D01*
G37*
G36*
X96941764Y-79179092D02*
G01*
X95902317Y-78139645D01*
X96100306Y-77941656D01*
X97139753Y-78981103D01*
X96941764Y-79179092D01*
G37*
G36*
X97295317Y-78825539D02*
G01*
X96255870Y-77786092D01*
X96453859Y-77588103D01*
X97493306Y-78627550D01*
X97295317Y-78825539D01*
G37*
G36*
X97648870Y-78471986D02*
G01*
X96609423Y-77432539D01*
X96807412Y-77234550D01*
X97846859Y-78273997D01*
X97648870Y-78471986D01*
G37*
G36*
X98002424Y-78118432D02*
G01*
X96962977Y-77078985D01*
X97160966Y-76880996D01*
X98200413Y-77920443D01*
X98002424Y-78118432D01*
G37*
G36*
X98355977Y-77764879D02*
G01*
X97316530Y-76725432D01*
X97514519Y-76527443D01*
X98553966Y-77566890D01*
X98355977Y-77764879D01*
G37*
G36*
X98709531Y-77411326D02*
G01*
X97670084Y-76371879D01*
X97868073Y-76173890D01*
X98907520Y-77213337D01*
X98709531Y-77411326D01*
G37*
G36*
X99063084Y-77057772D02*
G01*
X98023637Y-76018325D01*
X98221626Y-75820336D01*
X99261073Y-76859783D01*
X99063084Y-77057772D01*
G37*
G36*
X107081675Y-85076363D02*
G01*
X106042228Y-84036916D01*
X106240217Y-83838927D01*
X107279664Y-84878374D01*
X107081675Y-85076363D01*
G37*
G36*
X106728121Y-85429916D02*
G01*
X105688674Y-84390469D01*
X105886663Y-84192480D01*
X106926110Y-85231927D01*
X106728121Y-85429916D01*
G37*
G36*
X106374568Y-85783470D02*
G01*
X105335121Y-84744023D01*
X105533110Y-84546034D01*
X106572557Y-85585481D01*
X106374568Y-85783470D01*
G37*
G36*
X106021015Y-86137023D02*
G01*
X104981568Y-85097576D01*
X105179557Y-84899587D01*
X106219004Y-85939034D01*
X106021015Y-86137023D01*
G37*
G36*
X105667461Y-86490577D02*
G01*
X104628014Y-85451130D01*
X104826003Y-85253141D01*
X105865450Y-86292588D01*
X105667461Y-86490577D01*
G37*
G36*
X105313908Y-86844130D02*
G01*
X104274461Y-85804683D01*
X104472450Y-85606694D01*
X105511897Y-86646141D01*
X105313908Y-86844130D01*
G37*
G36*
X104960355Y-87197683D02*
G01*
X103920908Y-86158236D01*
X104118897Y-85960247D01*
X105158344Y-86999694D01*
X104960355Y-87197683D01*
G37*
G36*
X104606801Y-87551237D02*
G01*
X103567354Y-86511790D01*
X103765343Y-86313801D01*
X104804790Y-87353248D01*
X104606801Y-87551237D01*
G37*
G36*
X104253248Y-87904790D02*
G01*
X103213801Y-86865343D01*
X103411790Y-86667354D01*
X104451237Y-87706801D01*
X104253248Y-87904790D01*
G37*
G36*
X103899694Y-88258344D02*
G01*
X102860247Y-87218897D01*
X103058236Y-87020908D01*
X104097683Y-88060355D01*
X103899694Y-88258344D01*
G37*
G36*
X103546141Y-88611897D02*
G01*
X102506694Y-87572450D01*
X102704683Y-87374461D01*
X103744130Y-88413908D01*
X103546141Y-88611897D01*
G37*
G36*
X103192588Y-88965450D02*
G01*
X102153141Y-87926003D01*
X102351130Y-87728014D01*
X103390577Y-88767461D01*
X103192588Y-88965450D01*
G37*
G36*
X102839034Y-89319004D02*
G01*
X101799587Y-88279557D01*
X101997576Y-88081568D01*
X103037023Y-89121015D01*
X102839034Y-89319004D01*
G37*
G36*
X102485481Y-89672557D02*
G01*
X101446034Y-88633110D01*
X101644023Y-88435121D01*
X102683470Y-89474568D01*
X102485481Y-89672557D01*
G37*
G36*
X102131927Y-90026110D02*
G01*
X101092480Y-88986663D01*
X101290469Y-88788674D01*
X102329916Y-89828121D01*
X102131927Y-90026110D01*
G37*
G36*
X101778374Y-90379664D02*
G01*
X100738927Y-89340217D01*
X100936916Y-89142228D01*
X101976363Y-90181675D01*
X101778374Y-90379664D01*
G37*
D11*
X108580000Y-122363000D03*
D12*
X107530000Y-123113000D03*
X107530000Y-122613000D03*
X107530000Y-122113000D03*
X107530000Y-121613000D03*
X109630000Y-121613000D03*
X109630000Y-122113000D03*
X109630000Y-122613000D03*
X109630000Y-123113000D03*
D11*
X91523000Y-91097000D03*
D12*
X92573000Y-90347000D03*
X92573000Y-90847000D03*
X92573000Y-91347000D03*
X92573000Y-91847000D03*
X90473000Y-91847000D03*
X90473000Y-91347000D03*
X90473000Y-90847000D03*
X90473000Y-90347000D03*
D13*
X115665000Y-126380000D03*
X118205000Y-126380000D03*
D14*
X120745000Y-126380000D03*
D15*
X119488000Y-86708000D03*
D16*
X117488000Y-86708000D03*
D10*
G36*
X88439237Y-75750106D02*
G01*
X88044106Y-76145237D01*
X87110159Y-75211290D01*
X87505290Y-74816159D01*
X88439237Y-75750106D01*
G37*
G36*
X90648380Y-76630171D02*
G01*
X90253249Y-77025302D01*
X89319302Y-76091355D01*
X89714433Y-75696224D01*
X90648380Y-76630171D01*
G37*
G36*
X89319302Y-77959249D02*
G01*
X88924171Y-78354380D01*
X87990224Y-77420433D01*
X88385355Y-77025302D01*
X89319302Y-77959249D01*
G37*
D17*
X107794000Y-128955000D03*
X111944000Y-128955000D03*
X107794000Y-131105000D03*
X111944000Y-131105000D03*
X117431000Y-128981000D03*
X121581000Y-128981000D03*
X117431000Y-131131000D03*
X121581000Y-131131000D03*
X79756000Y-128345000D03*
X83906000Y-128345000D03*
X79756000Y-130495000D03*
X83906000Y-130495000D03*
D10*
G36*
X89867449Y-84638089D02*
G01*
X89337119Y-85168419D01*
X88912855Y-84744155D01*
X89443185Y-84213825D01*
X89867449Y-84638089D01*
G37*
G36*
X91034175Y-85804815D02*
G01*
X90503845Y-86335145D01*
X90079581Y-85910881D01*
X90609911Y-85380551D01*
X91034175Y-85804815D01*
G37*
G36*
X90235145Y-86603845D02*
G01*
X89704815Y-87134175D01*
X89280551Y-86709911D01*
X89810881Y-86179581D01*
X90235145Y-86603845D01*
G37*
G36*
X89068419Y-85437119D02*
G01*
X88538089Y-85967449D01*
X88113825Y-85543185D01*
X88644155Y-85012855D01*
X89068419Y-85437119D01*
G37*
D18*
X83506000Y-121152000D03*
X83506000Y-122102000D03*
X83506000Y-123052000D03*
X81196000Y-123052000D03*
X81196000Y-122102000D03*
X81196000Y-121152000D03*
D19*
X95799651Y-101394501D03*
X95799651Y-102694499D03*
X93557349Y-102694499D03*
X93557349Y-102044500D03*
X93557349Y-101394501D03*
D20*
X99390000Y-105150000D03*
X99790000Y-108270000D03*
D21*
X99555000Y-106310000D03*
D22*
X101550000Y-106510000D03*
D20*
X100590000Y-108270000D03*
D23*
X101600000Y-107710000D03*
X98380000Y-105710000D03*
X98380000Y-107710000D03*
D24*
X100990000Y-108320000D03*
D22*
X98430000Y-107310000D03*
D20*
X100190000Y-108270000D03*
D22*
X101550000Y-106110000D03*
D24*
X98990000Y-105100000D03*
D22*
X98430000Y-106910000D03*
D20*
X100190000Y-105150000D03*
X99390000Y-108270000D03*
D21*
X99555000Y-107110000D03*
D22*
X98430000Y-106110000D03*
D24*
X98990000Y-108320000D03*
D20*
X100590000Y-105150000D03*
D22*
X101550000Y-106910000D03*
X101550000Y-107310000D03*
D23*
X101600000Y-105710000D03*
D20*
X99790000Y-105150000D03*
D22*
X98430000Y-106510000D03*
D24*
X100990000Y-105100000D03*
D21*
X100425000Y-106310000D03*
X100425000Y-107110000D03*
D25*
X104706000Y-129921000D03*
D26*
X102206000Y-129921000D03*
X99706000Y-129921000D03*
X116420000Y-122364000D03*
X113880000Y-122364000D03*
X118960000Y-122364000D03*
X118960000Y-119824000D03*
X116420000Y-119824000D03*
X113880000Y-119824000D03*
D15*
X117466000Y-92941000D03*
D16*
X119466000Y-92941000D03*
D27*
X108832800Y-78377000D03*
X111017200Y-77437200D03*
X111017200Y-79316800D03*
D28*
X102845000Y-124498800D03*
X103795001Y-126883200D03*
X101894999Y-126883200D03*
D26*
X83670000Y-91530000D03*
X86210000Y-91530000D03*
X81130000Y-91530000D03*
X81130000Y-94070000D03*
X83670000Y-94070000D03*
X86210000Y-94070000D03*
D29*
X96265634Y-74993410D03*
X97134366Y-72606590D03*
X102865634Y-72606590D03*
X103734366Y-74993410D03*
X80634833Y-83510688D03*
X83165167Y-83289312D03*
X116834833Y-83289312D03*
X119365167Y-83510688D03*
X82965167Y-81189312D03*
X80434833Y-81410688D03*
X119565167Y-81410688D03*
X117034833Y-81189312D03*
X105734366Y-74293410D03*
X104865634Y-71906590D03*
X95134366Y-71906590D03*
X94265634Y-74293410D03*
D30*
X100728000Y-92851000D03*
X100728000Y-91431000D03*
D10*
G36*
X86577662Y-83371658D02*
G01*
X87242342Y-84036338D01*
X86726154Y-84552526D01*
X86061474Y-83887846D01*
X86577662Y-83371658D01*
G37*
G36*
X87581754Y-82367566D02*
G01*
X88246434Y-83032246D01*
X87730246Y-83548434D01*
X87065566Y-82883754D01*
X87581754Y-82367566D01*
G37*
D30*
X99285000Y-92851000D03*
X99285000Y-91431000D03*
D10*
G36*
X90953708Y-80857612D02*
G01*
X91618388Y-81522292D01*
X91102200Y-82038480D01*
X90437520Y-81373800D01*
X90953708Y-80857612D01*
G37*
G36*
X91957800Y-79853520D02*
G01*
X92622480Y-80518200D01*
X92106292Y-81034388D01*
X91441612Y-80369708D01*
X91957800Y-79853520D01*
G37*
D31*
X106693000Y-89600000D03*
X105273000Y-89600000D03*
D30*
X83955000Y-124760000D03*
X83955000Y-126180000D03*
D31*
X113793000Y-88668000D03*
X112373000Y-88668000D03*
D30*
X82408000Y-124736000D03*
X82408000Y-126156000D03*
X80911000Y-124736000D03*
X80911000Y-126156000D03*
D31*
X114210000Y-82463000D03*
X112790000Y-82463000D03*
X112790000Y-84838000D03*
X114210000Y-84838000D03*
X82512000Y-119613000D03*
X83932000Y-119613000D03*
X100687000Y-73142000D03*
X99267000Y-73142000D03*
D30*
X82721000Y-117139000D03*
X82721000Y-115719000D03*
X84373000Y-117139000D03*
X84373000Y-115719000D03*
X92075000Y-99962900D03*
X92075000Y-101382900D03*
D31*
X108621000Y-125285000D03*
X107201000Y-125285000D03*
X91113000Y-88977000D03*
X92533000Y-88977000D03*
X111183000Y-125276000D03*
X109763000Y-125276000D03*
X87044000Y-88977000D03*
X85624000Y-88977000D03*
X111183000Y-126727000D03*
X109763000Y-126727000D03*
X87044000Y-87569000D03*
X85624000Y-87569000D03*
X94616200Y-104190800D03*
X96036200Y-104190800D03*
X94628900Y-99860100D03*
X96048900Y-99860100D03*
X102654000Y-110380000D03*
X101234000Y-110380000D03*
D30*
X97075000Y-106898000D03*
X97075000Y-108318000D03*
X103098600Y-106300200D03*
X103098600Y-107720200D03*
D31*
X110331000Y-84659000D03*
X108911000Y-84659000D03*
D10*
G36*
X94644612Y-88863292D02*
G01*
X95309292Y-88198612D01*
X95825480Y-88714800D01*
X95160800Y-89379480D01*
X94644612Y-88863292D01*
G37*
G36*
X93640520Y-87859200D02*
G01*
X94305200Y-87194520D01*
X94821388Y-87710708D01*
X94156708Y-88375388D01*
X93640520Y-87859200D01*
G37*
D31*
X99264000Y-74625000D03*
X100684000Y-74625000D03*
D32*
X105804000Y-126723000D03*
X105804000Y-125123000D03*
D33*
X96875000Y-125995000D03*
X98475000Y-125995000D03*
D32*
X96870000Y-130750000D03*
X96870000Y-129150000D03*
D33*
X93300000Y-125948000D03*
X94900000Y-125948000D03*
X115398000Y-131112000D03*
X113798000Y-131112000D03*
X94910000Y-122070000D03*
X93310000Y-122070000D03*
X114174000Y-87021000D03*
X112574000Y-87021000D03*
D32*
X85903000Y-120903000D03*
X85903000Y-119303000D03*
X87590000Y-119291000D03*
X87590000Y-120891000D03*
D33*
X90386000Y-102704900D03*
X91986000Y-102704900D03*
D10*
G36*
X84976256Y-76851363D02*
G01*
X85683363Y-76144256D01*
X86355114Y-76816007D01*
X85648007Y-77523114D01*
X84976256Y-76851363D01*
G37*
G36*
X83844886Y-75719993D02*
G01*
X84551993Y-75012886D01*
X85223744Y-75684637D01*
X84516637Y-76391744D01*
X83844886Y-75719993D01*
G37*
G36*
X86827744Y-79103637D02*
G01*
X86120637Y-79810744D01*
X85448886Y-79138993D01*
X86155993Y-78431886D01*
X86827744Y-79103637D01*
G37*
G36*
X87959114Y-80235007D02*
G01*
X87252007Y-80942114D01*
X86580256Y-80270363D01*
X87287363Y-79563256D01*
X87959114Y-80235007D01*
G37*
D32*
X102000000Y-101092300D03*
X102000000Y-102692300D03*
X113519000Y-77716000D03*
X113519000Y-79316000D03*
X100000000Y-101105000D03*
X100000000Y-102705000D03*
X98000000Y-101105000D03*
X98000000Y-102705000D03*
D10*
G36*
X106651429Y-76499322D02*
G01*
X105944322Y-77206429D01*
X105272571Y-76534678D01*
X105979678Y-75827571D01*
X106651429Y-76499322D01*
G37*
G36*
X107782799Y-77630692D02*
G01*
X107075692Y-78337799D01*
X106403941Y-77666048D01*
X107111048Y-76958941D01*
X107782799Y-77630692D01*
G37*
D33*
X107341000Y-69120000D03*
X105741000Y-69120000D03*
X96946000Y-110188000D03*
X98546000Y-110188000D03*
D32*
X115293000Y-79316000D03*
X115293000Y-77716000D03*
D33*
X113334000Y-74570000D03*
X114934000Y-74570000D03*
D10*
G36*
X93307744Y-76381637D02*
G01*
X92600637Y-77088744D01*
X91928886Y-76416993D01*
X92635993Y-75709886D01*
X93307744Y-76381637D01*
G37*
G36*
X94439114Y-77513007D02*
G01*
X93732007Y-78220114D01*
X93060256Y-77548363D01*
X93767363Y-76841256D01*
X94439114Y-77513007D01*
G37*
G36*
X91176363Y-78576744D02*
G01*
X90469256Y-77869637D01*
X91141007Y-77197886D01*
X91848114Y-77904993D01*
X91176363Y-78576744D01*
G37*
G36*
X90044993Y-79708114D02*
G01*
X89337886Y-79001007D01*
X90009637Y-78329256D01*
X90716744Y-79036363D01*
X90044993Y-79708114D01*
G37*
D33*
X86438000Y-130498000D03*
X88038000Y-130498000D03*
D10*
G36*
X85886744Y-72885637D02*
G01*
X85179637Y-73592744D01*
X84507886Y-72920993D01*
X85214993Y-72213886D01*
X85886744Y-72885637D01*
G37*
G36*
X87018114Y-74017007D02*
G01*
X86311007Y-74724114D01*
X85639256Y-74052363D01*
X86346363Y-73345256D01*
X87018114Y-74017007D01*
G37*
D33*
X109950000Y-75787000D03*
X111550000Y-75787000D03*
D10*
G36*
X97033677Y-69236926D02*
G01*
X96361926Y-69908677D01*
X95796241Y-69342992D01*
X96467992Y-68671241D01*
X97033677Y-69236926D01*
G37*
G36*
X98235759Y-70439008D02*
G01*
X97564008Y-71110759D01*
X96998323Y-70545074D01*
X97670074Y-69873323D01*
X98235759Y-70439008D01*
G37*
G36*
X103449074Y-70046677D02*
G01*
X102777323Y-69374926D01*
X103343008Y-68809241D01*
X104014759Y-69480992D01*
X103449074Y-70046677D01*
G37*
G36*
X102246992Y-71248759D02*
G01*
X101575241Y-70577008D01*
X102140926Y-70011323D01*
X102812677Y-70683074D01*
X102246992Y-71248759D01*
G37*
D34*
X99919000Y-69290000D03*
X99919000Y-70990000D03*
X92130000Y-129050000D03*
X92130000Y-130750000D03*
D33*
X103650000Y-91432000D03*
X105250000Y-91432000D03*
D35*
X79722000Y-118621000D03*
X79722000Y-116571000D03*
D36*
X94900000Y-130755000D03*
X94900000Y-127705000D03*
M02*
