G04 #@! TF.GenerationSoftware,KiCad,Pcbnew,(5.1.9)-1*
G04 #@! TF.CreationDate,2021-05-10T17:03:18+09:00*
G04 #@! TF.ProjectId,part02,70617274-3032-42e6-9b69-6361645f7063,rev?*
G04 #@! TF.SameCoordinates,Original*
G04 #@! TF.FileFunction,Copper,L2,Bot*
G04 #@! TF.FilePolarity,Positive*
%FSLAX46Y46*%
G04 Gerber Fmt 4.6, Leading zero omitted, Abs format (unit mm)*
G04 Created by KiCad (PCBNEW (5.1.9)-1) date 2021-05-10 17:03:18*
%MOMM*%
%LPD*%
G01*
G04 APERTURE LIST*
G04 #@! TA.AperFunction,ComponentPad*
%ADD10O,1.700000X1.700000*%
G04 #@! TD*
G04 #@! TA.AperFunction,ComponentPad*
%ADD11R,1.700000X1.700000*%
G04 #@! TD*
G04 #@! TA.AperFunction,ComponentPad*
%ADD12C,1.350000*%
G04 #@! TD*
G04 #@! TA.AperFunction,ComponentPad*
%ADD13R,1.350000X1.350000*%
G04 #@! TD*
G04 #@! TA.AperFunction,ComponentPad*
%ADD14R,1.524000X1.524000*%
G04 #@! TD*
G04 #@! TA.AperFunction,ComponentPad*
%ADD15C,1.524000*%
G04 #@! TD*
G04 #@! TA.AperFunction,ComponentPad*
%ADD16C,1.416000*%
G04 #@! TD*
G04 #@! TA.AperFunction,ViaPad*
%ADD17C,0.600000*%
G04 #@! TD*
G04 #@! TA.AperFunction,ViaPad*
%ADD18C,0.800000*%
G04 #@! TD*
G04 #@! TA.AperFunction,Conductor*
%ADD19C,0.200000*%
G04 #@! TD*
G04 #@! TA.AperFunction,Conductor*
%ADD20C,0.500000*%
G04 #@! TD*
G04 #@! TA.AperFunction,Conductor*
%ADD21C,1.000000*%
G04 #@! TD*
G04 #@! TA.AperFunction,Conductor*
%ADD22C,0.300000*%
G04 #@! TD*
G04 #@! TA.AperFunction,Conductor*
%ADD23C,0.254000*%
G04 #@! TD*
G04 #@! TA.AperFunction,Conductor*
%ADD24C,0.100000*%
G04 #@! TD*
G04 APERTURE END LIST*
D10*
X115665000Y-126380000D03*
X118205000Y-126380000D03*
D11*
X120745000Y-126380000D03*
D12*
X119488000Y-86708000D03*
D13*
X117488000Y-86708000D03*
D14*
X104706000Y-129921000D03*
D15*
X102206000Y-129921000D03*
X99706000Y-129921000D03*
X116420000Y-122364000D03*
X113880000Y-122364000D03*
X118960000Y-122364000D03*
X118960000Y-119824000D03*
X116420000Y-119824000D03*
X113880000Y-119824000D03*
D12*
X117466000Y-92941000D03*
D13*
X119466000Y-92941000D03*
D15*
X83670000Y-91530000D03*
X86210000Y-91530000D03*
X81130000Y-91530000D03*
X81130000Y-94070000D03*
X83670000Y-94070000D03*
X86210000Y-94070000D03*
D16*
X96265634Y-74993410D03*
X97134366Y-72606590D03*
X102865634Y-72606590D03*
X103734366Y-74993410D03*
X80634833Y-83510688D03*
X83165167Y-83289312D03*
X116834833Y-83289312D03*
X119365167Y-83510688D03*
X82965167Y-81189312D03*
X80434833Y-81410688D03*
X119565167Y-81410688D03*
X117034833Y-81189312D03*
X105734366Y-74293410D03*
X104865634Y-71906590D03*
X95134366Y-71906590D03*
X94265634Y-74293410D03*
D17*
X102603000Y-86538000D03*
X102094000Y-80872000D03*
X82491000Y-118218000D03*
X79635000Y-121126000D03*
X79658000Y-124337000D03*
X91704000Y-87837000D03*
X103252000Y-108749000D03*
X104201000Y-106778000D03*
X98157000Y-104954000D03*
X102561000Y-104954000D03*
X106530000Y-91980000D03*
D18*
X96831000Y-97450000D03*
X98089000Y-97450000D03*
X90032500Y-128326500D03*
X90706500Y-127652500D03*
D17*
X110586000Y-99892000D03*
X109075201Y-98379201D03*
D18*
X93915000Y-120577000D03*
X86868829Y-124760000D03*
X90078000Y-118901000D03*
D17*
X94609000Y-97110000D03*
X112289000Y-124723000D03*
X108627000Y-126460000D03*
X112291000Y-127146000D03*
X88963000Y-89442000D03*
X99437000Y-75682000D03*
X89364000Y-94008000D03*
X92695000Y-95166000D03*
X95372299Y-81795701D03*
X111674597Y-119233597D03*
D18*
X95338000Y-93763000D03*
X90078000Y-120643000D03*
X87590000Y-117241000D03*
X95737000Y-76937000D03*
X117153000Y-89758000D03*
X116198000Y-90713000D03*
X114201000Y-97135000D03*
X121028000Y-97152000D03*
X121276000Y-89388000D03*
X121364000Y-84012000D03*
X94975000Y-107027000D03*
X107583000Y-119504000D03*
X107881000Y-116808000D03*
X121251000Y-116341000D03*
X117367000Y-116235000D03*
X121357000Y-123557000D03*
X90201000Y-130498000D03*
X78593000Y-130561000D03*
X78720000Y-127038000D03*
X85766000Y-127335000D03*
D17*
X104195297Y-90129054D03*
X104319000Y-92851000D03*
X104836000Y-97450000D03*
X104983855Y-88550615D03*
X105459000Y-87907000D03*
X110781000Y-123973000D03*
X85903000Y-118082000D03*
D18*
X85912300Y-115726000D03*
X101606009Y-119205991D03*
D17*
X112145000Y-93122000D03*
X91570000Y-95164000D03*
X89623500Y-97110500D03*
X84669998Y-85690000D03*
X97435000Y-83887000D03*
X84721000Y-84575000D03*
X91923000Y-83393000D03*
X95937986Y-82361388D03*
X97249187Y-81050187D03*
X98007000Y-98759000D03*
X107003000Y-126294000D03*
X101132999Y-123801999D03*
X92774000Y-108315000D03*
X116163000Y-128981000D03*
X92754000Y-97816000D03*
X91911000Y-116649000D03*
X88028000Y-126674000D03*
X97544000Y-93959000D03*
X100283000Y-77723211D03*
X86820001Y-86410999D03*
X107176000Y-85900990D03*
X106574000Y-128955000D03*
X93887000Y-112863000D03*
D18*
X98957000Y-118228000D03*
D17*
X93565361Y-88466560D03*
X105167000Y-128536000D03*
X102629000Y-128536000D03*
X90682000Y-116476000D03*
X84186000Y-87136000D03*
X96856000Y-124668000D03*
X106102615Y-87308743D03*
X111200000Y-88239000D03*
X108958000Y-91371000D03*
D18*
X99848475Y-116301525D03*
D17*
X106752000Y-106386000D03*
X108118000Y-90950000D03*
X103974000Y-103670000D03*
X88649000Y-129259000D03*
X106046000Y-100294000D03*
X112760000Y-83597000D03*
X110106000Y-85736000D03*
X102250000Y-68600000D03*
X114959000Y-71061000D03*
X102374850Y-90778150D03*
X105309000Y-116361000D03*
X100302000Y-90479000D03*
X100770989Y-99317000D03*
X103819000Y-102452000D03*
X104459000Y-117780000D03*
X97743000Y-90831000D03*
X95709386Y-92283614D03*
X94731000Y-91350000D03*
X97032000Y-90163000D03*
X86346000Y-81248000D03*
X94661000Y-83993000D03*
X105015000Y-84073000D03*
X110094000Y-81080000D03*
X94031000Y-75736000D03*
X96074735Y-84398735D03*
X89300000Y-80056000D03*
X95472000Y-83773000D03*
X106860000Y-75014000D03*
X109037000Y-77332000D03*
X108277000Y-76181000D03*
X107857000Y-81973000D03*
X113123000Y-127089998D03*
X93975000Y-111418000D03*
D18*
X100114000Y-118228000D03*
D17*
X97027063Y-82601937D03*
D18*
X88484000Y-122082000D03*
D17*
X85060000Y-122087000D03*
X106757000Y-86708743D03*
X111449000Y-86999000D03*
X99571735Y-98970735D03*
X98968000Y-82132000D03*
X88142000Y-78636000D03*
X93062000Y-80059000D03*
X98993000Y-103372000D03*
X100800000Y-84032000D03*
X97576400Y-103887000D03*
X100193000Y-83493000D03*
X110973000Y-70409000D03*
X110733000Y-72677732D03*
X99926000Y-110680000D03*
X99587000Y-82807000D03*
X106105000Y-78491000D03*
X112308000Y-74584000D03*
D19*
X114942001Y-125657001D02*
X115665000Y-126380000D01*
X113179010Y-116729010D02*
X114942001Y-118492001D01*
X105714000Y-111632397D02*
X110810613Y-116729010D01*
X105714000Y-102754699D02*
X105714000Y-111632397D01*
X114942001Y-118492001D02*
X114942001Y-125657001D01*
X102975000Y-100015699D02*
X105714000Y-102754699D01*
X110810613Y-116729010D02*
X113179010Y-116729010D01*
X102975000Y-90520230D02*
X102975000Y-100015699D01*
X102603000Y-90148230D02*
X102975000Y-90520230D01*
X102603000Y-86538000D02*
X102603000Y-90148230D01*
X115342011Y-123517011D02*
X118205000Y-126380000D01*
X115342011Y-118266011D02*
X115342011Y-123517011D01*
X113405000Y-116329000D02*
X115342011Y-118266011D01*
X110976302Y-116329000D02*
X113405000Y-116329000D01*
X110055000Y-110577002D02*
X110055000Y-115407698D01*
X106151999Y-106674001D02*
X110055000Y-110577002D01*
X106151999Y-102627000D02*
X106151999Y-106674001D01*
X110055000Y-115407698D02*
X110976302Y-116329000D01*
X103556000Y-100031001D02*
X106151999Y-102627000D01*
X103556000Y-82334000D02*
X103556000Y-100031001D01*
X102094000Y-80872000D02*
X103556000Y-82334000D01*
D20*
X79635000Y-121126000D02*
X79635000Y-121074000D01*
X79635000Y-121126000D02*
X79635000Y-124314000D01*
X79635000Y-121074000D02*
X82491000Y-118218000D01*
X79635000Y-124314000D02*
X79658000Y-124337000D01*
D19*
X104201000Y-107800000D02*
X104201000Y-106778000D01*
X103252000Y-108749000D02*
X104201000Y-107800000D01*
X98157000Y-104954000D02*
X102561000Y-104954000D01*
X105077500Y-91037500D02*
X105077500Y-91005500D01*
X105077500Y-91005500D02*
X105610000Y-91538000D01*
X106528000Y-91982000D02*
X106530000Y-91980000D01*
X106054000Y-91982000D02*
X106528000Y-91982000D01*
D21*
X96831000Y-97450000D02*
X97882000Y-97450000D01*
X97882000Y-97450000D02*
X98089000Y-97450000D01*
X95799000Y-97450000D02*
X96831000Y-97450000D01*
X90032500Y-128326500D02*
X94975000Y-123384000D01*
D19*
X109075201Y-98381201D02*
X109075201Y-98379201D01*
X110586000Y-99892000D02*
X109075201Y-98381201D01*
D21*
X94975000Y-120577000D02*
X94975000Y-107027000D01*
X94975000Y-123384000D02*
X94975000Y-120577000D01*
D20*
X93915000Y-120577000D02*
X94975000Y-120577000D01*
X86868829Y-124760000D02*
X87504000Y-124760000D01*
X90078000Y-122186000D02*
X90078000Y-120643000D01*
X87504000Y-124760000D02*
X90078000Y-122186000D01*
D19*
X95341500Y-97842500D02*
X95406500Y-97842500D01*
D21*
X95406500Y-97842500D02*
X95799000Y-97450000D01*
D19*
X94609000Y-97110000D02*
X95341500Y-97842500D01*
D21*
X94975000Y-98274000D02*
X95406500Y-97842500D01*
D19*
X109576000Y-127409000D02*
X108627000Y-126460000D01*
X112028000Y-127409000D02*
X109576000Y-127409000D01*
X112291000Y-127146000D02*
X112291000Y-127146000D01*
X112291000Y-127146000D02*
X112028000Y-127409000D01*
X105699500Y-91627500D02*
X106054000Y-91982000D01*
X105610000Y-91538000D02*
X105699500Y-91627500D01*
X88963000Y-89442000D02*
X88963000Y-93608000D01*
X88963000Y-93608000D02*
X88964000Y-93608000D01*
X88964000Y-93608000D02*
X89364000Y-94008000D01*
X92180000Y-94651000D02*
X92695000Y-95166000D01*
X92180000Y-88313000D02*
X92180000Y-94651000D01*
X91704000Y-87837000D02*
X92180000Y-88313000D01*
X99706000Y-75951000D02*
X99437000Y-75682000D01*
X99706000Y-76198000D02*
X99706000Y-75951000D01*
X99706000Y-76198000D02*
X99706000Y-77042000D01*
X99706000Y-77462000D02*
X99706000Y-77042000D01*
X95372299Y-81795701D02*
X99706000Y-77462000D01*
X112289000Y-119848000D02*
X111674597Y-119233597D01*
X112289000Y-124723000D02*
X112289000Y-119848000D01*
D20*
X90078000Y-120643000D02*
X90078000Y-118901000D01*
D19*
X99706000Y-77462000D02*
X99653000Y-77462000D01*
X99653000Y-77462000D02*
X99560000Y-77369000D01*
X99560000Y-77369000D02*
X99478000Y-77451000D01*
D21*
X94975000Y-107027000D02*
X94975000Y-98274000D01*
D19*
X105077500Y-91005500D02*
X104201054Y-90129054D01*
X104201054Y-90129054D02*
X104195297Y-90129054D01*
X104476000Y-92851000D02*
X104319000Y-92851000D01*
X105699500Y-91627500D02*
X104476000Y-92851000D01*
X111030001Y-91091999D02*
X111030001Y-94946999D01*
X108075190Y-99765190D02*
X110699980Y-102389980D01*
X110699980Y-115486980D02*
X111125000Y-115912000D01*
X117897999Y-121301999D02*
X118960000Y-122364000D01*
X111030001Y-94946999D02*
X108075190Y-97901810D01*
X108075190Y-97901810D02*
X108075190Y-99765190D01*
X110699980Y-102389980D02*
X110699980Y-115486980D01*
X109798002Y-89860000D02*
X111030001Y-91091999D01*
X111125000Y-115912000D02*
X114079762Y-115912000D01*
X108862559Y-89860000D02*
X109798002Y-89860000D01*
X107553174Y-88550615D02*
X108862559Y-89860000D01*
X114079762Y-115912000D02*
X117897999Y-119730237D01*
X117897999Y-119730237D02*
X117897999Y-121301999D01*
X104983855Y-88550615D02*
X107553174Y-88550615D01*
X105460743Y-87908743D02*
X105459000Y-87907000D01*
X109021257Y-89453000D02*
X107477000Y-87908743D01*
X111430011Y-95136389D02*
X111430011Y-90926310D01*
X108475200Y-98091200D02*
X111430011Y-95136389D01*
X111099990Y-102039992D02*
X108475200Y-99415202D01*
X109956701Y-89453000D02*
X109021257Y-89453000D01*
X111099990Y-115165690D02*
X111099990Y-102039992D01*
X111390300Y-115456000D02*
X111099990Y-115165690D01*
X108475200Y-99415202D02*
X108475200Y-98091200D01*
X114592000Y-115456000D02*
X111390300Y-115456000D01*
X107477000Y-87908743D02*
X105460743Y-87908743D01*
X111430011Y-90926310D02*
X109956701Y-89453000D01*
X118960000Y-119824000D02*
X114592000Y-115456000D01*
D20*
X103533991Y-119205991D02*
X106135000Y-121807000D01*
X85903000Y-118082000D02*
X85903000Y-115735300D01*
X108615000Y-121807000D02*
X110781000Y-123973000D01*
X85903000Y-115735300D02*
X85912300Y-115726000D01*
D22*
X83670000Y-91530000D02*
X83670000Y-88289000D01*
X80634833Y-85253833D02*
X80634833Y-84732833D01*
X80634833Y-84732833D02*
X80634833Y-83510688D01*
D20*
X101606009Y-119205991D02*
X103533991Y-119205991D01*
D22*
X115628000Y-89639000D02*
X112145000Y-93122000D01*
X91570000Y-95164000D02*
X89623500Y-97110500D01*
X115628000Y-85445000D02*
X116782000Y-85445000D01*
X115628000Y-84496145D02*
X115628000Y-85445000D01*
X115628000Y-85445000D02*
X115628000Y-89639000D01*
X116782000Y-85445000D02*
X118119000Y-84108000D01*
X118119000Y-82856855D02*
X119565167Y-81410688D01*
X118119000Y-84108000D02*
X118119000Y-82856855D01*
X115866573Y-84257573D02*
X115853573Y-84257573D01*
X115866573Y-84257573D02*
X115628000Y-84496145D01*
X115954072Y-84170072D02*
X115866573Y-84257573D01*
X116834833Y-83289312D02*
X115954072Y-84170072D01*
X81838000Y-86457000D02*
X81838000Y-86408000D01*
X83670000Y-88289000D02*
X81838000Y-86457000D01*
X81838000Y-86408000D02*
X85100000Y-83146000D01*
X85100000Y-80715998D02*
X93909408Y-71906590D01*
X93909408Y-71906590D02*
X95134366Y-71906590D01*
X85100000Y-83146000D02*
X85100000Y-80715998D01*
X81888000Y-84916000D02*
X81092500Y-85711500D01*
X81888000Y-82266479D02*
X81888000Y-84916000D01*
X82965167Y-81189312D02*
X81888000Y-82266479D01*
X81092500Y-85711500D02*
X80634833Y-85253833D01*
X81838000Y-86457000D02*
X81092500Y-85711500D01*
X106200034Y-73827742D02*
X105734366Y-74293410D01*
X114792742Y-73827742D02*
X106200034Y-73827742D01*
X115402000Y-74437000D02*
X114792742Y-73827742D01*
X115402000Y-83618000D02*
X115402000Y-74437000D01*
X115954072Y-84170072D02*
X115402000Y-83618000D01*
D20*
X106135000Y-121807000D02*
X108615000Y-121807000D01*
D19*
X84669998Y-85690000D02*
X86998000Y-85690000D01*
X94096000Y-87226000D02*
X97435000Y-83887000D01*
X86998000Y-85690000D02*
X89157000Y-87849000D01*
X89157000Y-87849000D02*
X90735000Y-87849000D01*
X90735000Y-87849000D02*
X91358000Y-87226000D01*
X91358000Y-87226000D02*
X94096000Y-87226000D01*
X97435000Y-83887000D02*
X97472999Y-83849001D01*
X91923000Y-83393000D02*
X89945000Y-83393000D01*
X89945000Y-83393000D02*
X88665000Y-82113000D01*
X87183000Y-82113000D02*
X84721000Y-84575000D01*
X88665000Y-82113000D02*
X87183000Y-82113000D01*
X96808187Y-81491187D02*
X97249187Y-81050187D01*
X95937986Y-82361388D02*
X96808187Y-81491187D01*
X103625000Y-126294000D02*
X101132999Y-123801999D01*
X104747000Y-126294000D02*
X103625000Y-126294000D01*
X115342000Y-128160000D02*
X116163000Y-128981000D01*
X106050000Y-126294000D02*
X106050000Y-126817000D01*
X107003000Y-126294000D02*
X106050000Y-126294000D01*
X106050000Y-126294000D02*
X104747000Y-126294000D01*
X107393000Y-128160000D02*
X115342000Y-128160000D01*
X106050000Y-126817000D02*
X107393000Y-128160000D01*
X98007000Y-98759000D02*
X98980000Y-97786000D01*
X92774000Y-108315000D02*
X91955000Y-108315000D01*
X91955000Y-108315000D02*
X91911000Y-108271000D01*
X91911000Y-108271000D02*
X91911000Y-99447000D01*
X91911000Y-113161000D02*
X91911000Y-108271000D01*
X91911000Y-113161000D02*
X91911000Y-116649000D01*
X91911000Y-118020000D02*
X91911000Y-116649000D01*
X88028000Y-125477000D02*
X91911000Y-121594000D01*
X88028000Y-126674000D02*
X88028000Y-125477000D01*
X91911000Y-121594000D02*
X91911000Y-118020000D01*
X92332000Y-98238000D02*
X92331000Y-98238000D01*
X91911000Y-98659000D02*
X92332000Y-98238000D01*
X92332000Y-98238000D02*
X92754000Y-97816000D01*
X98980000Y-97209616D02*
X97085000Y-95314616D01*
X98980000Y-97786000D02*
X98980000Y-97209616D01*
X97085000Y-94418000D02*
X97544000Y-93959000D01*
X97085000Y-95314616D02*
X97085000Y-94418000D01*
X87272001Y-86862999D02*
X87272001Y-95699001D01*
X90610000Y-99037000D02*
X91911000Y-99037000D01*
X87272001Y-95699001D02*
X90610000Y-99037000D01*
X91911000Y-99037000D02*
X91911000Y-98659000D01*
X91911000Y-99447000D02*
X91911000Y-99037000D01*
X86820001Y-86410999D02*
X87272001Y-86862999D01*
X105244990Y-85900990D02*
X107176000Y-85900990D01*
X100283000Y-77723211D02*
X104386000Y-81826211D01*
X104386000Y-81826211D02*
X104386000Y-85042000D01*
X104386000Y-85042000D02*
X105244990Y-85900990D01*
X105554999Y-127935999D02*
X106574000Y-128955000D01*
X104141999Y-127935999D02*
X105554999Y-127935999D01*
X98957000Y-122751000D02*
X104141999Y-127935999D01*
X98957000Y-118228000D02*
X98957000Y-122751000D01*
X93374999Y-88656922D02*
X93565361Y-88466560D01*
X93374999Y-112350999D02*
X93374999Y-88656922D01*
X93887000Y-112863000D02*
X93374999Y-112350999D01*
X105167000Y-128536000D02*
X102629000Y-128536000D01*
D22*
X90682000Y-116476000D02*
X89012000Y-114806000D01*
X84964000Y-94649000D02*
X84964000Y-91018000D01*
X84186000Y-90240000D02*
X84186000Y-87136000D01*
X84964000Y-91018000D02*
X84186000Y-90240000D01*
X84964000Y-94649000D02*
X88162000Y-97847000D01*
X88483410Y-97847000D02*
X88950010Y-98313600D01*
X88162000Y-97847000D02*
X88483410Y-97847000D01*
X88950010Y-114744010D02*
X89012000Y-114806000D01*
X88950010Y-98313600D02*
X88950010Y-114744010D01*
D19*
X96856000Y-121170000D02*
X96856000Y-124668000D01*
X99847473Y-116301525D02*
X99848475Y-116301525D01*
X96856000Y-119292998D02*
X99847473Y-116301525D01*
X96856000Y-121170000D02*
X96856000Y-119292998D01*
X106752000Y-106386000D02*
X106752000Y-93577000D01*
X106752000Y-93577000D02*
X106826500Y-93502500D01*
X108958000Y-91371000D02*
X106826500Y-93502500D01*
X107725529Y-87308743D02*
X106102615Y-87308743D01*
X108002272Y-87032000D02*
X107725529Y-87308743D01*
X109993000Y-87032000D02*
X108002272Y-87032000D01*
X111200000Y-88239000D02*
X109993000Y-87032000D01*
X103974000Y-103670000D02*
X103391000Y-104253000D01*
X88649000Y-129259000D02*
X90764000Y-129259000D01*
X90764000Y-129259000D02*
X96245000Y-123778000D01*
X96245000Y-123778000D02*
X96245000Y-117012000D01*
X100526001Y-107877001D02*
X103161001Y-105242001D01*
X100526001Y-112730999D02*
X100526001Y-107877001D01*
X96245000Y-117012000D02*
X100526001Y-112730999D01*
X103161001Y-104482999D02*
X103391000Y-104253000D01*
X103161001Y-105242001D02*
X103161001Y-104482999D01*
X108118000Y-90950000D02*
X108118000Y-91645302D01*
X106046000Y-93717302D02*
X106046000Y-100294000D01*
X108118000Y-91645302D02*
X106046000Y-93717302D01*
X112760000Y-83597000D02*
X110621000Y-85736000D01*
X110621000Y-85736000D02*
X110106000Y-85736000D01*
X112498000Y-68600000D02*
X114959000Y-71061000D01*
X102250000Y-68600000D02*
X112498000Y-68600000D01*
D22*
X96265634Y-74993410D02*
X99996410Y-74993410D01*
X119365167Y-83510688D02*
X121533000Y-81342855D01*
X121533000Y-81342855D02*
X121533000Y-76052000D01*
X102044656Y-74993410D02*
X99996410Y-74993410D01*
X103802657Y-73235409D02*
X102044656Y-74993410D01*
X106242207Y-73235409D02*
X103802657Y-73235409D01*
X106334530Y-73327732D02*
X106242207Y-73235409D01*
X118808732Y-73327732D02*
X106334530Y-73327732D01*
X121533000Y-76052000D02*
X118808732Y-73327732D01*
X102865634Y-70925634D02*
X102865634Y-72606590D01*
X100923000Y-68983000D02*
X102865634Y-70925634D01*
X83165167Y-83289312D02*
X84302000Y-82152479D01*
X84302000Y-82152479D02*
X84302000Y-71449000D01*
X86768000Y-68983000D02*
X100923000Y-68983000D01*
X84302000Y-71449000D02*
X86768000Y-68983000D01*
D19*
X102374850Y-93837150D02*
X102374850Y-90778150D01*
X102374850Y-93837150D02*
X102374850Y-94757150D01*
X102374850Y-94757150D02*
X102374850Y-100016059D01*
X105313990Y-102955199D02*
X105313990Y-106967389D01*
X102374850Y-100016059D02*
X105313990Y-102955199D01*
X105313990Y-116356010D02*
X105309000Y-116361000D01*
X105313990Y-106967389D02*
X105313990Y-116356010D01*
X100302000Y-90479000D02*
X100302000Y-93852000D01*
X100302000Y-93852000D02*
X100779000Y-94329000D01*
X100779000Y-94329000D02*
X100779000Y-98910000D01*
X100779000Y-98910000D02*
X100779000Y-99326000D01*
X104459000Y-116340000D02*
X104459000Y-117780000D01*
X104801001Y-115997999D02*
X104459000Y-116340000D01*
X104801001Y-103434001D02*
X104801001Y-115997999D01*
X103819000Y-102452000D02*
X104801001Y-103434001D01*
X96290386Y-92283614D02*
X95709386Y-92283614D01*
X97743000Y-90831000D02*
X96290386Y-92283614D01*
X97032000Y-90163000D02*
X97032000Y-90571000D01*
X96253000Y-91350000D02*
X94731000Y-91350000D01*
X97032000Y-90571000D02*
X96253000Y-91350000D01*
X88592998Y-81248000D02*
X86346000Y-81248000D01*
X90137998Y-82793000D02*
X88592998Y-81248000D01*
X93460999Y-82792999D02*
X90137998Y-82793000D01*
X94661000Y-83993000D02*
X93460999Y-82792999D01*
X105015000Y-84073000D02*
X107101000Y-84073000D01*
X107101000Y-84073000D02*
X110094000Y-81080000D01*
X94686000Y-76391000D02*
X94031000Y-75736000D01*
X94772298Y-76477298D02*
X94686000Y-76391000D01*
X94772298Y-76477298D02*
X94772298Y-82083702D01*
X94772298Y-82083702D02*
X94772298Y-82095298D01*
X96072001Y-84396001D02*
X96074735Y-84398735D01*
X96072001Y-83383405D02*
X96072001Y-84396001D01*
X94772298Y-82083702D02*
X96072001Y-83383405D01*
X89300000Y-81067000D02*
X89300000Y-80056000D01*
X90577000Y-82344000D02*
X89300000Y-81067000D01*
X90577000Y-82344000D02*
X93938000Y-82344000D01*
X93938000Y-82344000D02*
X93960000Y-82344000D01*
X94043000Y-82344000D02*
X95472000Y-83773000D01*
X93938000Y-82344000D02*
X94043000Y-82344000D01*
X108027000Y-76181000D02*
X106860000Y-75014000D01*
X108277000Y-76181000D02*
X108027000Y-76181000D01*
X109037000Y-80793000D02*
X107857000Y-81973000D01*
X109037000Y-77332000D02*
X109037000Y-80793000D01*
X113123000Y-127089998D02*
X110668000Y-124634998D01*
X110668000Y-124634998D02*
X108185168Y-124634998D01*
X108185168Y-124634998D02*
X103476170Y-119926000D01*
X103476170Y-119926000D02*
X101125000Y-119926000D01*
X101125000Y-119926000D02*
X101091000Y-119926000D01*
X100114000Y-118949000D02*
X100114000Y-118228000D01*
X101091000Y-119926000D02*
X100114000Y-118949000D01*
X98381000Y-86811998D02*
X98381000Y-83955874D01*
X93975000Y-111418000D02*
X93975000Y-91217998D01*
X93975000Y-91217998D02*
X98381000Y-86811998D01*
X98381000Y-83955874D02*
X97027063Y-82601937D01*
D20*
X88484000Y-122082000D02*
X85065000Y-122082000D01*
X85065000Y-122082000D02*
X85060000Y-122087000D01*
D19*
X106964743Y-86501000D02*
X106757000Y-86708743D01*
X110951000Y-86501000D02*
X106964743Y-86501000D01*
X111449000Y-86999000D02*
X110951000Y-86501000D01*
X98968000Y-93696998D02*
X98968000Y-82132000D01*
X99580001Y-98962469D02*
X99580001Y-94308999D01*
X99580001Y-94308999D02*
X98968000Y-93696998D01*
X99571735Y-98970735D02*
X99580001Y-98962469D01*
X98968000Y-82132000D02*
X98968000Y-82132000D01*
X91639000Y-78636000D02*
X92182765Y-79179765D01*
X88142000Y-78636000D02*
X91639000Y-78636000D01*
X92182765Y-79179765D02*
X93062000Y-80059000D01*
X100800000Y-84032000D02*
X100800000Y-84032000D01*
X101770999Y-100594001D02*
X98993000Y-103372000D01*
X101770999Y-89076999D02*
X101770999Y-100594001D01*
X100800000Y-88106000D02*
X101770999Y-89076999D01*
X100800000Y-84032000D02*
X100800000Y-88106000D01*
X100193000Y-88227000D02*
X100193000Y-83493000D01*
X101370989Y-89404989D02*
X100193000Y-88227000D01*
X101370989Y-100330011D02*
X101370989Y-89404989D01*
X98163800Y-102579000D02*
X99122000Y-102579000D01*
X99122000Y-102579000D02*
X101370989Y-100330011D01*
X97576400Y-103166400D02*
X98163800Y-102579000D01*
X97576400Y-103887000D02*
X97576400Y-103166400D01*
X110973000Y-72437732D02*
X110733000Y-72677732D01*
X110973000Y-70409000D02*
X110973000Y-72437732D01*
X100171736Y-99258736D02*
X100171736Y-94335036D01*
X96924000Y-102506472D02*
X100171736Y-99258736D01*
X96924000Y-110921000D02*
X96924000Y-102506472D01*
X97254000Y-111251000D02*
X96924000Y-110921000D01*
X99670000Y-111251000D02*
X97254000Y-111251000D01*
X99926000Y-110995000D02*
X99670000Y-111251000D01*
X99926000Y-110680000D02*
X99926000Y-110995000D01*
X99587000Y-93750300D02*
X99587000Y-82807000D01*
X100171736Y-94335036D02*
X99587000Y-93750300D01*
X106989998Y-78491000D02*
X106105000Y-78491000D01*
X110896998Y-74584000D02*
X106989998Y-78491000D01*
X112308000Y-74584000D02*
X110896998Y-74584000D01*
D23*
X98233000Y-93325710D02*
X98140028Y-93232738D01*
X97986889Y-93130414D01*
X97816729Y-93059932D01*
X97636089Y-93024000D01*
X97451911Y-93024000D01*
X97271271Y-93059932D01*
X97101111Y-93130414D01*
X96947972Y-93232738D01*
X96817738Y-93362972D01*
X96715414Y-93516111D01*
X96644932Y-93686271D01*
X96612068Y-93851486D01*
X96590808Y-93872746D01*
X96562763Y-93895762D01*
X96470914Y-94007680D01*
X96412703Y-94116586D01*
X96402664Y-94135367D01*
X96360635Y-94273915D01*
X96346444Y-94418000D01*
X96350000Y-94454105D01*
X96350000Y-95278511D01*
X96346444Y-95314616D01*
X96357899Y-95430922D01*
X96360635Y-95458700D01*
X96402663Y-95597248D01*
X96470913Y-95724935D01*
X96562762Y-95836853D01*
X96590808Y-95859870D01*
X98228745Y-97497808D01*
X97899485Y-97827068D01*
X97734271Y-97859932D01*
X97564111Y-97930414D01*
X97410972Y-98032738D01*
X97280738Y-98162972D01*
X97178414Y-98316111D01*
X97107932Y-98486271D01*
X97072000Y-98666911D01*
X97072000Y-98851089D01*
X97107932Y-99031729D01*
X97178414Y-99201889D01*
X97280738Y-99355028D01*
X97410972Y-99485262D01*
X97564111Y-99587586D01*
X97734271Y-99658068D01*
X97914911Y-99694000D01*
X98099089Y-99694000D01*
X98279729Y-99658068D01*
X98449889Y-99587586D01*
X98603028Y-99485262D01*
X98723091Y-99365199D01*
X98743149Y-99413624D01*
X98836977Y-99554048D01*
X96429808Y-101961218D01*
X96401763Y-101984234D01*
X96309914Y-102096152D01*
X96303930Y-102107348D01*
X96241664Y-102223839D01*
X96199635Y-102362387D01*
X96185444Y-102506472D01*
X96189001Y-102542587D01*
X96189000Y-110884895D01*
X96185444Y-110921000D01*
X96191976Y-110987321D01*
X96199635Y-111065084D01*
X96241663Y-111203632D01*
X96309913Y-111331319D01*
X96323288Y-111347617D01*
X96580843Y-115636711D01*
X95750808Y-116466746D01*
X95722763Y-116489762D01*
X95630914Y-116601680D01*
X95579008Y-116698789D01*
X95562664Y-116729367D01*
X95520635Y-116867915D01*
X95506444Y-117012000D01*
X95510001Y-117048115D01*
X95510000Y-123473553D01*
X90459554Y-128524000D01*
X89231951Y-128524000D01*
X89091889Y-128430414D01*
X88921729Y-128359932D01*
X88741089Y-128324000D01*
X88556911Y-128324000D01*
X88376271Y-128359932D01*
X88206111Y-128430414D01*
X88052972Y-128532738D01*
X87922738Y-128662972D01*
X87820414Y-128816111D01*
X87749932Y-128986271D01*
X87714000Y-129166911D01*
X87714000Y-129351089D01*
X87749932Y-129531729D01*
X87820414Y-129701889D01*
X87922738Y-129855028D01*
X88052972Y-129985262D01*
X88206111Y-130087586D01*
X88376271Y-130158068D01*
X88556911Y-130194000D01*
X88741089Y-130194000D01*
X88921729Y-130158068D01*
X89091889Y-130087586D01*
X89231951Y-129994000D01*
X90727895Y-129994000D01*
X90764000Y-129997556D01*
X90800105Y-129994000D01*
X90810085Y-129993017D01*
X98304090Y-129993017D01*
X98345078Y-130265133D01*
X98438364Y-130524023D01*
X98500344Y-130639980D01*
X98740435Y-130706960D01*
X99526395Y-129921000D01*
X98740435Y-129135040D01*
X98500344Y-129202020D01*
X98383244Y-129451048D01*
X98316977Y-129718135D01*
X98304090Y-129993017D01*
X90810085Y-129993017D01*
X90908085Y-129983365D01*
X91046633Y-129941337D01*
X91174320Y-129873087D01*
X91286238Y-129781238D01*
X91309259Y-129753187D01*
X92107011Y-128955435D01*
X98920040Y-128955435D01*
X99706000Y-129741395D01*
X100491960Y-128955435D01*
X100424980Y-128715344D01*
X100175952Y-128598244D01*
X99908865Y-128531977D01*
X99633983Y-128519090D01*
X99361867Y-128560078D01*
X99102977Y-128653364D01*
X98987020Y-128715344D01*
X98920040Y-128955435D01*
X92107011Y-128955435D01*
X96005196Y-125057250D01*
X96027414Y-125110889D01*
X96129738Y-125264028D01*
X96259972Y-125394262D01*
X96413111Y-125496586D01*
X96583271Y-125567068D01*
X96763911Y-125603000D01*
X96948089Y-125603000D01*
X97128729Y-125567068D01*
X97298889Y-125496586D01*
X97452028Y-125394262D01*
X97582262Y-125264028D01*
X97684586Y-125110889D01*
X97755068Y-124940729D01*
X97791000Y-124760089D01*
X97791000Y-124575911D01*
X97755068Y-124395271D01*
X97684586Y-124225111D01*
X97591000Y-124085049D01*
X97591000Y-123726757D01*
X98357210Y-123178739D01*
X98434763Y-123273238D01*
X98462808Y-123296254D01*
X102779091Y-127612537D01*
X102721089Y-127601000D01*
X102536911Y-127601000D01*
X102356271Y-127636932D01*
X102186111Y-127707414D01*
X102032972Y-127809738D01*
X101902738Y-127939972D01*
X101800414Y-128093111D01*
X101729932Y-128263271D01*
X101694000Y-128443911D01*
X101694000Y-128620976D01*
X101544273Y-128682995D01*
X101315465Y-128835880D01*
X101120880Y-129030465D01*
X100967995Y-129259273D01*
X100956758Y-129286401D01*
X100911656Y-129202020D01*
X100671565Y-129135040D01*
X99885605Y-129921000D01*
X100671565Y-130706960D01*
X100911656Y-130639980D01*
X100954218Y-130549467D01*
X100967995Y-130582727D01*
X101120880Y-130811535D01*
X101315465Y-131006120D01*
X101544273Y-131159005D01*
X101798510Y-131264314D01*
X101801959Y-131265000D01*
X100097095Y-131265000D01*
X100309023Y-131188636D01*
X100424980Y-131126656D01*
X100491960Y-130886565D01*
X99706000Y-130100605D01*
X98920040Y-130886565D01*
X98987020Y-131126656D01*
X99236048Y-131243756D01*
X99321671Y-131265000D01*
X78235000Y-131265000D01*
X78235000Y-121994911D01*
X84125000Y-121994911D01*
X84125000Y-122179089D01*
X84160932Y-122359729D01*
X84231414Y-122529889D01*
X84333738Y-122683028D01*
X84463972Y-122813262D01*
X84617111Y-122915586D01*
X84787271Y-122986068D01*
X84967911Y-123022000D01*
X85152089Y-123022000D01*
X85332729Y-122986068D01*
X85378764Y-122967000D01*
X87945546Y-122967000D01*
X87993744Y-122999205D01*
X88182102Y-123077226D01*
X88382061Y-123117000D01*
X88585939Y-123117000D01*
X88785898Y-123077226D01*
X88974256Y-122999205D01*
X89143774Y-122885937D01*
X89287937Y-122741774D01*
X89401205Y-122572256D01*
X89479226Y-122383898D01*
X89519000Y-122183939D01*
X89519000Y-121980061D01*
X89479226Y-121780102D01*
X89401205Y-121591744D01*
X89287937Y-121422226D01*
X89143774Y-121278063D01*
X88974256Y-121164795D01*
X88785898Y-121086774D01*
X88585939Y-121047000D01*
X88382061Y-121047000D01*
X88182102Y-121086774D01*
X87993744Y-121164795D01*
X87945546Y-121197000D01*
X85354621Y-121197000D01*
X85332729Y-121187932D01*
X85152089Y-121152000D01*
X84967911Y-121152000D01*
X84787271Y-121187932D01*
X84617111Y-121258414D01*
X84463972Y-121360738D01*
X84333738Y-121490972D01*
X84231414Y-121644111D01*
X84160932Y-121814271D01*
X84125000Y-121994911D01*
X78235000Y-121994911D01*
X78235000Y-115735000D01*
X84877300Y-115735000D01*
X84877300Y-115827939D01*
X84917074Y-116027898D01*
X84995095Y-116216256D01*
X85018001Y-116250537D01*
X85018000Y-117775307D01*
X85003932Y-117809271D01*
X84968000Y-117989911D01*
X84968000Y-118174089D01*
X85003932Y-118354729D01*
X85074414Y-118524889D01*
X85176738Y-118678028D01*
X85306972Y-118808262D01*
X85460111Y-118910586D01*
X85630271Y-118981068D01*
X85810911Y-119017000D01*
X85995089Y-119017000D01*
X86175729Y-118981068D01*
X86345889Y-118910586D01*
X86499028Y-118808262D01*
X86629262Y-118678028D01*
X86731586Y-118524889D01*
X86802068Y-118354729D01*
X86838000Y-118174089D01*
X86838000Y-117989911D01*
X86802068Y-117809271D01*
X86788000Y-117775308D01*
X86788000Y-116278373D01*
X86829505Y-116216256D01*
X86907526Y-116027898D01*
X86947300Y-115827939D01*
X86947300Y-115735000D01*
X88463895Y-115735000D01*
X88500000Y-115738556D01*
X88536105Y-115735000D01*
X88644085Y-115724365D01*
X88779216Y-115683373D01*
X89767626Y-116671783D01*
X89782932Y-116748729D01*
X89853414Y-116918889D01*
X89955738Y-117072028D01*
X90085972Y-117202262D01*
X90239111Y-117304586D01*
X90409271Y-117375068D01*
X90589911Y-117411000D01*
X90774089Y-117411000D01*
X90954729Y-117375068D01*
X91124889Y-117304586D01*
X91176001Y-117270434D01*
X91176000Y-118056104D01*
X91176001Y-118056114D01*
X91176000Y-121289553D01*
X87533808Y-124931746D01*
X87505763Y-124954762D01*
X87413914Y-125066680D01*
X87365511Y-125157236D01*
X87345664Y-125194367D01*
X87303635Y-125332915D01*
X87289444Y-125477000D01*
X87293001Y-125513115D01*
X87293000Y-126091049D01*
X87199414Y-126231111D01*
X87128932Y-126401271D01*
X87093000Y-126581911D01*
X87093000Y-126766089D01*
X87128932Y-126946729D01*
X87199414Y-127116889D01*
X87301738Y-127270028D01*
X87431972Y-127400262D01*
X87585111Y-127502586D01*
X87755271Y-127573068D01*
X87935911Y-127609000D01*
X88120089Y-127609000D01*
X88300729Y-127573068D01*
X88470889Y-127502586D01*
X88624028Y-127400262D01*
X88754262Y-127270028D01*
X88856586Y-127116889D01*
X88927068Y-126946729D01*
X88963000Y-126766089D01*
X88963000Y-126581911D01*
X88927068Y-126401271D01*
X88856586Y-126231111D01*
X88763000Y-126091049D01*
X88763000Y-125781446D01*
X88997899Y-125546547D01*
X89027747Y-125696603D01*
X89143164Y-125975244D01*
X89310723Y-126226014D01*
X89523986Y-126439277D01*
X89774756Y-126606836D01*
X90053397Y-126722253D01*
X90349201Y-126781092D01*
X90650799Y-126781092D01*
X90946603Y-126722253D01*
X91225244Y-126606836D01*
X91476014Y-126439277D01*
X91689277Y-126226014D01*
X91856836Y-125975244D01*
X91972253Y-125696603D01*
X92031092Y-125400799D01*
X92031092Y-125099201D01*
X91972253Y-124803397D01*
X91856836Y-124524756D01*
X91689277Y-124273986D01*
X91476014Y-124060723D01*
X91225244Y-123893164D01*
X90946603Y-123777747D01*
X90796547Y-123747899D01*
X92405197Y-122139250D01*
X92433237Y-122116238D01*
X92456250Y-122088197D01*
X92456253Y-122088194D01*
X92525086Y-122004321D01*
X92525087Y-122004320D01*
X92593337Y-121876633D01*
X92635365Y-121738085D01*
X92646000Y-121630105D01*
X92646000Y-121630096D01*
X92649555Y-121594001D01*
X92646000Y-121557906D01*
X92646000Y-117231951D01*
X92739586Y-117091889D01*
X92810068Y-116921729D01*
X92846000Y-116741089D01*
X92846000Y-116556911D01*
X92810068Y-116376271D01*
X92739586Y-116206111D01*
X92646000Y-116066049D01*
X92646000Y-113746599D01*
X93551609Y-113736113D01*
X93614271Y-113762068D01*
X93794911Y-113798000D01*
X93979089Y-113798000D01*
X94159729Y-113762068D01*
X94329889Y-113691586D01*
X94483028Y-113589262D01*
X94613262Y-113459028D01*
X94715586Y-113305889D01*
X94786068Y-113135729D01*
X94822000Y-112955089D01*
X94822000Y-112770911D01*
X94786068Y-112590271D01*
X94715586Y-112420111D01*
X94613262Y-112266972D01*
X94522786Y-112176496D01*
X94571028Y-112144262D01*
X94701262Y-112014028D01*
X94803586Y-111860889D01*
X94874068Y-111690729D01*
X94910000Y-111510089D01*
X94910000Y-111325911D01*
X94874068Y-111145271D01*
X94803586Y-110975111D01*
X94710000Y-110835049D01*
X94710000Y-93002000D01*
X95105482Y-93002000D01*
X95113358Y-93009876D01*
X95266497Y-93112200D01*
X95436657Y-93182682D01*
X95617297Y-93218614D01*
X95801475Y-93218614D01*
X95982115Y-93182682D01*
X96152275Y-93112200D01*
X96287448Y-93021881D01*
X96290386Y-93022170D01*
X96326491Y-93018614D01*
X96434471Y-93007979D01*
X96573019Y-92965951D01*
X96700706Y-92897701D01*
X96812624Y-92805852D01*
X96835644Y-92777802D01*
X97850515Y-91762931D01*
X98015729Y-91730068D01*
X98185889Y-91659586D01*
X98233000Y-91628107D01*
X98233000Y-93325710D01*
G04 #@! TA.AperFunction,Conductor*
D24*
G36*
X98233000Y-93325710D02*
G01*
X98140028Y-93232738D01*
X97986889Y-93130414D01*
X97816729Y-93059932D01*
X97636089Y-93024000D01*
X97451911Y-93024000D01*
X97271271Y-93059932D01*
X97101111Y-93130414D01*
X96947972Y-93232738D01*
X96817738Y-93362972D01*
X96715414Y-93516111D01*
X96644932Y-93686271D01*
X96612068Y-93851486D01*
X96590808Y-93872746D01*
X96562763Y-93895762D01*
X96470914Y-94007680D01*
X96412703Y-94116586D01*
X96402664Y-94135367D01*
X96360635Y-94273915D01*
X96346444Y-94418000D01*
X96350000Y-94454105D01*
X96350000Y-95278511D01*
X96346444Y-95314616D01*
X96357899Y-95430922D01*
X96360635Y-95458700D01*
X96402663Y-95597248D01*
X96470913Y-95724935D01*
X96562762Y-95836853D01*
X96590808Y-95859870D01*
X98228745Y-97497808D01*
X97899485Y-97827068D01*
X97734271Y-97859932D01*
X97564111Y-97930414D01*
X97410972Y-98032738D01*
X97280738Y-98162972D01*
X97178414Y-98316111D01*
X97107932Y-98486271D01*
X97072000Y-98666911D01*
X97072000Y-98851089D01*
X97107932Y-99031729D01*
X97178414Y-99201889D01*
X97280738Y-99355028D01*
X97410972Y-99485262D01*
X97564111Y-99587586D01*
X97734271Y-99658068D01*
X97914911Y-99694000D01*
X98099089Y-99694000D01*
X98279729Y-99658068D01*
X98449889Y-99587586D01*
X98603028Y-99485262D01*
X98723091Y-99365199D01*
X98743149Y-99413624D01*
X98836977Y-99554048D01*
X96429808Y-101961218D01*
X96401763Y-101984234D01*
X96309914Y-102096152D01*
X96303930Y-102107348D01*
X96241664Y-102223839D01*
X96199635Y-102362387D01*
X96185444Y-102506472D01*
X96189001Y-102542587D01*
X96189000Y-110884895D01*
X96185444Y-110921000D01*
X96191976Y-110987321D01*
X96199635Y-111065084D01*
X96241663Y-111203632D01*
X96309913Y-111331319D01*
X96323288Y-111347617D01*
X96580843Y-115636711D01*
X95750808Y-116466746D01*
X95722763Y-116489762D01*
X95630914Y-116601680D01*
X95579008Y-116698789D01*
X95562664Y-116729367D01*
X95520635Y-116867915D01*
X95506444Y-117012000D01*
X95510001Y-117048115D01*
X95510000Y-123473553D01*
X90459554Y-128524000D01*
X89231951Y-128524000D01*
X89091889Y-128430414D01*
X88921729Y-128359932D01*
X88741089Y-128324000D01*
X88556911Y-128324000D01*
X88376271Y-128359932D01*
X88206111Y-128430414D01*
X88052972Y-128532738D01*
X87922738Y-128662972D01*
X87820414Y-128816111D01*
X87749932Y-128986271D01*
X87714000Y-129166911D01*
X87714000Y-129351089D01*
X87749932Y-129531729D01*
X87820414Y-129701889D01*
X87922738Y-129855028D01*
X88052972Y-129985262D01*
X88206111Y-130087586D01*
X88376271Y-130158068D01*
X88556911Y-130194000D01*
X88741089Y-130194000D01*
X88921729Y-130158068D01*
X89091889Y-130087586D01*
X89231951Y-129994000D01*
X90727895Y-129994000D01*
X90764000Y-129997556D01*
X90800105Y-129994000D01*
X90810085Y-129993017D01*
X98304090Y-129993017D01*
X98345078Y-130265133D01*
X98438364Y-130524023D01*
X98500344Y-130639980D01*
X98740435Y-130706960D01*
X99526395Y-129921000D01*
X98740435Y-129135040D01*
X98500344Y-129202020D01*
X98383244Y-129451048D01*
X98316977Y-129718135D01*
X98304090Y-129993017D01*
X90810085Y-129993017D01*
X90908085Y-129983365D01*
X91046633Y-129941337D01*
X91174320Y-129873087D01*
X91286238Y-129781238D01*
X91309259Y-129753187D01*
X92107011Y-128955435D01*
X98920040Y-128955435D01*
X99706000Y-129741395D01*
X100491960Y-128955435D01*
X100424980Y-128715344D01*
X100175952Y-128598244D01*
X99908865Y-128531977D01*
X99633983Y-128519090D01*
X99361867Y-128560078D01*
X99102977Y-128653364D01*
X98987020Y-128715344D01*
X98920040Y-128955435D01*
X92107011Y-128955435D01*
X96005196Y-125057250D01*
X96027414Y-125110889D01*
X96129738Y-125264028D01*
X96259972Y-125394262D01*
X96413111Y-125496586D01*
X96583271Y-125567068D01*
X96763911Y-125603000D01*
X96948089Y-125603000D01*
X97128729Y-125567068D01*
X97298889Y-125496586D01*
X97452028Y-125394262D01*
X97582262Y-125264028D01*
X97684586Y-125110889D01*
X97755068Y-124940729D01*
X97791000Y-124760089D01*
X97791000Y-124575911D01*
X97755068Y-124395271D01*
X97684586Y-124225111D01*
X97591000Y-124085049D01*
X97591000Y-123726757D01*
X98357210Y-123178739D01*
X98434763Y-123273238D01*
X98462808Y-123296254D01*
X102779091Y-127612537D01*
X102721089Y-127601000D01*
X102536911Y-127601000D01*
X102356271Y-127636932D01*
X102186111Y-127707414D01*
X102032972Y-127809738D01*
X101902738Y-127939972D01*
X101800414Y-128093111D01*
X101729932Y-128263271D01*
X101694000Y-128443911D01*
X101694000Y-128620976D01*
X101544273Y-128682995D01*
X101315465Y-128835880D01*
X101120880Y-129030465D01*
X100967995Y-129259273D01*
X100956758Y-129286401D01*
X100911656Y-129202020D01*
X100671565Y-129135040D01*
X99885605Y-129921000D01*
X100671565Y-130706960D01*
X100911656Y-130639980D01*
X100954218Y-130549467D01*
X100967995Y-130582727D01*
X101120880Y-130811535D01*
X101315465Y-131006120D01*
X101544273Y-131159005D01*
X101798510Y-131264314D01*
X101801959Y-131265000D01*
X100097095Y-131265000D01*
X100309023Y-131188636D01*
X100424980Y-131126656D01*
X100491960Y-130886565D01*
X99706000Y-130100605D01*
X98920040Y-130886565D01*
X98987020Y-131126656D01*
X99236048Y-131243756D01*
X99321671Y-131265000D01*
X78235000Y-131265000D01*
X78235000Y-121994911D01*
X84125000Y-121994911D01*
X84125000Y-122179089D01*
X84160932Y-122359729D01*
X84231414Y-122529889D01*
X84333738Y-122683028D01*
X84463972Y-122813262D01*
X84617111Y-122915586D01*
X84787271Y-122986068D01*
X84967911Y-123022000D01*
X85152089Y-123022000D01*
X85332729Y-122986068D01*
X85378764Y-122967000D01*
X87945546Y-122967000D01*
X87993744Y-122999205D01*
X88182102Y-123077226D01*
X88382061Y-123117000D01*
X88585939Y-123117000D01*
X88785898Y-123077226D01*
X88974256Y-122999205D01*
X89143774Y-122885937D01*
X89287937Y-122741774D01*
X89401205Y-122572256D01*
X89479226Y-122383898D01*
X89519000Y-122183939D01*
X89519000Y-121980061D01*
X89479226Y-121780102D01*
X89401205Y-121591744D01*
X89287937Y-121422226D01*
X89143774Y-121278063D01*
X88974256Y-121164795D01*
X88785898Y-121086774D01*
X88585939Y-121047000D01*
X88382061Y-121047000D01*
X88182102Y-121086774D01*
X87993744Y-121164795D01*
X87945546Y-121197000D01*
X85354621Y-121197000D01*
X85332729Y-121187932D01*
X85152089Y-121152000D01*
X84967911Y-121152000D01*
X84787271Y-121187932D01*
X84617111Y-121258414D01*
X84463972Y-121360738D01*
X84333738Y-121490972D01*
X84231414Y-121644111D01*
X84160932Y-121814271D01*
X84125000Y-121994911D01*
X78235000Y-121994911D01*
X78235000Y-115735000D01*
X84877300Y-115735000D01*
X84877300Y-115827939D01*
X84917074Y-116027898D01*
X84995095Y-116216256D01*
X85018001Y-116250537D01*
X85018000Y-117775307D01*
X85003932Y-117809271D01*
X84968000Y-117989911D01*
X84968000Y-118174089D01*
X85003932Y-118354729D01*
X85074414Y-118524889D01*
X85176738Y-118678028D01*
X85306972Y-118808262D01*
X85460111Y-118910586D01*
X85630271Y-118981068D01*
X85810911Y-119017000D01*
X85995089Y-119017000D01*
X86175729Y-118981068D01*
X86345889Y-118910586D01*
X86499028Y-118808262D01*
X86629262Y-118678028D01*
X86731586Y-118524889D01*
X86802068Y-118354729D01*
X86838000Y-118174089D01*
X86838000Y-117989911D01*
X86802068Y-117809271D01*
X86788000Y-117775308D01*
X86788000Y-116278373D01*
X86829505Y-116216256D01*
X86907526Y-116027898D01*
X86947300Y-115827939D01*
X86947300Y-115735000D01*
X88463895Y-115735000D01*
X88500000Y-115738556D01*
X88536105Y-115735000D01*
X88644085Y-115724365D01*
X88779216Y-115683373D01*
X89767626Y-116671783D01*
X89782932Y-116748729D01*
X89853414Y-116918889D01*
X89955738Y-117072028D01*
X90085972Y-117202262D01*
X90239111Y-117304586D01*
X90409271Y-117375068D01*
X90589911Y-117411000D01*
X90774089Y-117411000D01*
X90954729Y-117375068D01*
X91124889Y-117304586D01*
X91176001Y-117270434D01*
X91176000Y-118056104D01*
X91176001Y-118056114D01*
X91176000Y-121289553D01*
X87533808Y-124931746D01*
X87505763Y-124954762D01*
X87413914Y-125066680D01*
X87365511Y-125157236D01*
X87345664Y-125194367D01*
X87303635Y-125332915D01*
X87289444Y-125477000D01*
X87293001Y-125513115D01*
X87293000Y-126091049D01*
X87199414Y-126231111D01*
X87128932Y-126401271D01*
X87093000Y-126581911D01*
X87093000Y-126766089D01*
X87128932Y-126946729D01*
X87199414Y-127116889D01*
X87301738Y-127270028D01*
X87431972Y-127400262D01*
X87585111Y-127502586D01*
X87755271Y-127573068D01*
X87935911Y-127609000D01*
X88120089Y-127609000D01*
X88300729Y-127573068D01*
X88470889Y-127502586D01*
X88624028Y-127400262D01*
X88754262Y-127270028D01*
X88856586Y-127116889D01*
X88927068Y-126946729D01*
X88963000Y-126766089D01*
X88963000Y-126581911D01*
X88927068Y-126401271D01*
X88856586Y-126231111D01*
X88763000Y-126091049D01*
X88763000Y-125781446D01*
X88997899Y-125546547D01*
X89027747Y-125696603D01*
X89143164Y-125975244D01*
X89310723Y-126226014D01*
X89523986Y-126439277D01*
X89774756Y-126606836D01*
X90053397Y-126722253D01*
X90349201Y-126781092D01*
X90650799Y-126781092D01*
X90946603Y-126722253D01*
X91225244Y-126606836D01*
X91476014Y-126439277D01*
X91689277Y-126226014D01*
X91856836Y-125975244D01*
X91972253Y-125696603D01*
X92031092Y-125400799D01*
X92031092Y-125099201D01*
X91972253Y-124803397D01*
X91856836Y-124524756D01*
X91689277Y-124273986D01*
X91476014Y-124060723D01*
X91225244Y-123893164D01*
X90946603Y-123777747D01*
X90796547Y-123747899D01*
X92405197Y-122139250D01*
X92433237Y-122116238D01*
X92456250Y-122088197D01*
X92456253Y-122088194D01*
X92525086Y-122004321D01*
X92525087Y-122004320D01*
X92593337Y-121876633D01*
X92635365Y-121738085D01*
X92646000Y-121630105D01*
X92646000Y-121630096D01*
X92649555Y-121594001D01*
X92646000Y-121557906D01*
X92646000Y-117231951D01*
X92739586Y-117091889D01*
X92810068Y-116921729D01*
X92846000Y-116741089D01*
X92846000Y-116556911D01*
X92810068Y-116376271D01*
X92739586Y-116206111D01*
X92646000Y-116066049D01*
X92646000Y-113746599D01*
X93551609Y-113736113D01*
X93614271Y-113762068D01*
X93794911Y-113798000D01*
X93979089Y-113798000D01*
X94159729Y-113762068D01*
X94329889Y-113691586D01*
X94483028Y-113589262D01*
X94613262Y-113459028D01*
X94715586Y-113305889D01*
X94786068Y-113135729D01*
X94822000Y-112955089D01*
X94822000Y-112770911D01*
X94786068Y-112590271D01*
X94715586Y-112420111D01*
X94613262Y-112266972D01*
X94522786Y-112176496D01*
X94571028Y-112144262D01*
X94701262Y-112014028D01*
X94803586Y-111860889D01*
X94874068Y-111690729D01*
X94910000Y-111510089D01*
X94910000Y-111325911D01*
X94874068Y-111145271D01*
X94803586Y-110975111D01*
X94710000Y-110835049D01*
X94710000Y-93002000D01*
X95105482Y-93002000D01*
X95113358Y-93009876D01*
X95266497Y-93112200D01*
X95436657Y-93182682D01*
X95617297Y-93218614D01*
X95801475Y-93218614D01*
X95982115Y-93182682D01*
X96152275Y-93112200D01*
X96287448Y-93021881D01*
X96290386Y-93022170D01*
X96326491Y-93018614D01*
X96434471Y-93007979D01*
X96573019Y-92965951D01*
X96700706Y-92897701D01*
X96812624Y-92805852D01*
X96835644Y-92777802D01*
X97850515Y-91762931D01*
X98015729Y-91730068D01*
X98185889Y-91659586D01*
X98233000Y-91628107D01*
X98233000Y-93325710D01*
G37*
G04 #@! TD.AperFunction*
D23*
X121765000Y-124917996D02*
X121719482Y-124904188D01*
X121595000Y-124891928D01*
X121030750Y-124895000D01*
X120872000Y-125053750D01*
X120872000Y-126253000D01*
X120892000Y-126253000D01*
X120892000Y-126507000D01*
X120872000Y-126507000D01*
X120872000Y-127706250D01*
X121030750Y-127865000D01*
X121595000Y-127868072D01*
X121719482Y-127855812D01*
X121765000Y-127842004D01*
X121765000Y-131265000D01*
X105726215Y-131265000D01*
X105822494Y-131213537D01*
X105919185Y-131134185D01*
X105998537Y-131037494D01*
X106057502Y-130927180D01*
X106093812Y-130807482D01*
X106106072Y-130683000D01*
X106106072Y-129766856D01*
X106131111Y-129783586D01*
X106301271Y-129854068D01*
X106481911Y-129890000D01*
X106666089Y-129890000D01*
X106846729Y-129854068D01*
X107016889Y-129783586D01*
X107170028Y-129681262D01*
X107300262Y-129551028D01*
X107402586Y-129397889D01*
X107473068Y-129227729D01*
X107509000Y-129047089D01*
X107509000Y-128895000D01*
X115037554Y-128895000D01*
X115231068Y-129088515D01*
X115263932Y-129253729D01*
X115334414Y-129423889D01*
X115436738Y-129577028D01*
X115566972Y-129707262D01*
X115720111Y-129809586D01*
X115890271Y-129880068D01*
X116070911Y-129916000D01*
X116255089Y-129916000D01*
X116435729Y-129880068D01*
X116605889Y-129809586D01*
X116759028Y-129707262D01*
X116889262Y-129577028D01*
X116991586Y-129423889D01*
X117062068Y-129253729D01*
X117098000Y-129073089D01*
X117098000Y-128888911D01*
X117062068Y-128708271D01*
X116991586Y-128538111D01*
X116889262Y-128384972D01*
X116759028Y-128254738D01*
X116605889Y-128152414D01*
X116435729Y-128081932D01*
X116270515Y-128049068D01*
X116040790Y-127819343D01*
X116098158Y-127807932D01*
X116368411Y-127695990D01*
X116611632Y-127533475D01*
X116818475Y-127326632D01*
X116935000Y-127152240D01*
X117051525Y-127326632D01*
X117258368Y-127533475D01*
X117501589Y-127695990D01*
X117771842Y-127807932D01*
X118058740Y-127865000D01*
X118351260Y-127865000D01*
X118638158Y-127807932D01*
X118908411Y-127695990D01*
X119151632Y-127533475D01*
X119283487Y-127401620D01*
X119305498Y-127474180D01*
X119364463Y-127584494D01*
X119443815Y-127681185D01*
X119540506Y-127760537D01*
X119650820Y-127819502D01*
X119770518Y-127855812D01*
X119895000Y-127868072D01*
X120459250Y-127865000D01*
X120618000Y-127706250D01*
X120618000Y-126507000D01*
X120598000Y-126507000D01*
X120598000Y-126253000D01*
X120618000Y-126253000D01*
X120618000Y-125053750D01*
X120459250Y-124895000D01*
X119895000Y-124891928D01*
X119770518Y-124904188D01*
X119650820Y-124940498D01*
X119540506Y-124999463D01*
X119443815Y-125078815D01*
X119364463Y-125175506D01*
X119305498Y-125285820D01*
X119283487Y-125358380D01*
X119151632Y-125226525D01*
X118908411Y-125064010D01*
X118638158Y-124952068D01*
X118351260Y-124895000D01*
X118058740Y-124895000D01*
X117809103Y-124944656D01*
X116614189Y-123749742D01*
X116827490Y-123707314D01*
X117081727Y-123602005D01*
X117310535Y-123449120D01*
X117505120Y-123254535D01*
X117658005Y-123025727D01*
X117690000Y-122948485D01*
X117721995Y-123025727D01*
X117874880Y-123254535D01*
X118069465Y-123449120D01*
X118298273Y-123602005D01*
X118552510Y-123707314D01*
X118822408Y-123761000D01*
X119097592Y-123761000D01*
X119367490Y-123707314D01*
X119621727Y-123602005D01*
X119850535Y-123449120D01*
X120045120Y-123254535D01*
X120198005Y-123025727D01*
X120303314Y-122771490D01*
X120357000Y-122501592D01*
X120357000Y-122226408D01*
X120303314Y-121956510D01*
X120198005Y-121702273D01*
X120045120Y-121473465D01*
X119850535Y-121278880D01*
X119621727Y-121125995D01*
X119544485Y-121094000D01*
X119621727Y-121062005D01*
X119850535Y-120909120D01*
X120045120Y-120714535D01*
X120198005Y-120485727D01*
X120303314Y-120231490D01*
X120357000Y-119961592D01*
X120357000Y-119686408D01*
X120303314Y-119416510D01*
X120198005Y-119162273D01*
X120045120Y-118933465D01*
X119850535Y-118738880D01*
X119621727Y-118585995D01*
X119367490Y-118480686D01*
X119097592Y-118427000D01*
X118822408Y-118427000D01*
X118638941Y-118463494D01*
X116812407Y-116636961D01*
X116955157Y-115735001D01*
X121765001Y-115735001D01*
X121765000Y-124917996D01*
G04 #@! TA.AperFunction,Conductor*
D24*
G36*
X121765000Y-124917996D02*
G01*
X121719482Y-124904188D01*
X121595000Y-124891928D01*
X121030750Y-124895000D01*
X120872000Y-125053750D01*
X120872000Y-126253000D01*
X120892000Y-126253000D01*
X120892000Y-126507000D01*
X120872000Y-126507000D01*
X120872000Y-127706250D01*
X121030750Y-127865000D01*
X121595000Y-127868072D01*
X121719482Y-127855812D01*
X121765000Y-127842004D01*
X121765000Y-131265000D01*
X105726215Y-131265000D01*
X105822494Y-131213537D01*
X105919185Y-131134185D01*
X105998537Y-131037494D01*
X106057502Y-130927180D01*
X106093812Y-130807482D01*
X106106072Y-130683000D01*
X106106072Y-129766856D01*
X106131111Y-129783586D01*
X106301271Y-129854068D01*
X106481911Y-129890000D01*
X106666089Y-129890000D01*
X106846729Y-129854068D01*
X107016889Y-129783586D01*
X107170028Y-129681262D01*
X107300262Y-129551028D01*
X107402586Y-129397889D01*
X107473068Y-129227729D01*
X107509000Y-129047089D01*
X107509000Y-128895000D01*
X115037554Y-128895000D01*
X115231068Y-129088515D01*
X115263932Y-129253729D01*
X115334414Y-129423889D01*
X115436738Y-129577028D01*
X115566972Y-129707262D01*
X115720111Y-129809586D01*
X115890271Y-129880068D01*
X116070911Y-129916000D01*
X116255089Y-129916000D01*
X116435729Y-129880068D01*
X116605889Y-129809586D01*
X116759028Y-129707262D01*
X116889262Y-129577028D01*
X116991586Y-129423889D01*
X117062068Y-129253729D01*
X117098000Y-129073089D01*
X117098000Y-128888911D01*
X117062068Y-128708271D01*
X116991586Y-128538111D01*
X116889262Y-128384972D01*
X116759028Y-128254738D01*
X116605889Y-128152414D01*
X116435729Y-128081932D01*
X116270515Y-128049068D01*
X116040790Y-127819343D01*
X116098158Y-127807932D01*
X116368411Y-127695990D01*
X116611632Y-127533475D01*
X116818475Y-127326632D01*
X116935000Y-127152240D01*
X117051525Y-127326632D01*
X117258368Y-127533475D01*
X117501589Y-127695990D01*
X117771842Y-127807932D01*
X118058740Y-127865000D01*
X118351260Y-127865000D01*
X118638158Y-127807932D01*
X118908411Y-127695990D01*
X119151632Y-127533475D01*
X119283487Y-127401620D01*
X119305498Y-127474180D01*
X119364463Y-127584494D01*
X119443815Y-127681185D01*
X119540506Y-127760537D01*
X119650820Y-127819502D01*
X119770518Y-127855812D01*
X119895000Y-127868072D01*
X120459250Y-127865000D01*
X120618000Y-127706250D01*
X120618000Y-126507000D01*
X120598000Y-126507000D01*
X120598000Y-126253000D01*
X120618000Y-126253000D01*
X120618000Y-125053750D01*
X120459250Y-124895000D01*
X119895000Y-124891928D01*
X119770518Y-124904188D01*
X119650820Y-124940498D01*
X119540506Y-124999463D01*
X119443815Y-125078815D01*
X119364463Y-125175506D01*
X119305498Y-125285820D01*
X119283487Y-125358380D01*
X119151632Y-125226525D01*
X118908411Y-125064010D01*
X118638158Y-124952068D01*
X118351260Y-124895000D01*
X118058740Y-124895000D01*
X117809103Y-124944656D01*
X116614189Y-123749742D01*
X116827490Y-123707314D01*
X117081727Y-123602005D01*
X117310535Y-123449120D01*
X117505120Y-123254535D01*
X117658005Y-123025727D01*
X117690000Y-122948485D01*
X117721995Y-123025727D01*
X117874880Y-123254535D01*
X118069465Y-123449120D01*
X118298273Y-123602005D01*
X118552510Y-123707314D01*
X118822408Y-123761000D01*
X119097592Y-123761000D01*
X119367490Y-123707314D01*
X119621727Y-123602005D01*
X119850535Y-123449120D01*
X120045120Y-123254535D01*
X120198005Y-123025727D01*
X120303314Y-122771490D01*
X120357000Y-122501592D01*
X120357000Y-122226408D01*
X120303314Y-121956510D01*
X120198005Y-121702273D01*
X120045120Y-121473465D01*
X119850535Y-121278880D01*
X119621727Y-121125995D01*
X119544485Y-121094000D01*
X119621727Y-121062005D01*
X119850535Y-120909120D01*
X120045120Y-120714535D01*
X120198005Y-120485727D01*
X120303314Y-120231490D01*
X120357000Y-119961592D01*
X120357000Y-119686408D01*
X120303314Y-119416510D01*
X120198005Y-119162273D01*
X120045120Y-118933465D01*
X119850535Y-118738880D01*
X119621727Y-118585995D01*
X119367490Y-118480686D01*
X119097592Y-118427000D01*
X118822408Y-118427000D01*
X118638941Y-118463494D01*
X116812407Y-116636961D01*
X116955157Y-115735001D01*
X121765001Y-115735001D01*
X121765000Y-124917996D01*
G37*
G04 #@! TD.AperFunction*
D23*
X110265359Y-117223203D02*
X110288375Y-117251248D01*
X110400293Y-117343097D01*
X110527980Y-117411347D01*
X110666528Y-117453375D01*
X110774508Y-117464010D01*
X110774517Y-117464010D01*
X110810612Y-117467565D01*
X110846707Y-117464010D01*
X112874564Y-117464010D01*
X113837553Y-118427000D01*
X113742408Y-118427000D01*
X113472510Y-118480686D01*
X113218273Y-118585995D01*
X112989465Y-118738880D01*
X112794880Y-118933465D01*
X112641995Y-119162273D01*
X112536686Y-119416510D01*
X112483000Y-119686408D01*
X112483000Y-119961592D01*
X112536686Y-120231490D01*
X112641995Y-120485727D01*
X112794880Y-120714535D01*
X112989465Y-120909120D01*
X113218273Y-121062005D01*
X113295515Y-121094000D01*
X113218273Y-121125995D01*
X112989465Y-121278880D01*
X112794880Y-121473465D01*
X112641995Y-121702273D01*
X112536686Y-121956510D01*
X112483000Y-122226408D01*
X112483000Y-122501592D01*
X112536686Y-122771490D01*
X112641995Y-123025727D01*
X112794880Y-123254535D01*
X112989465Y-123449120D01*
X113218273Y-123602005D01*
X113472510Y-123707314D01*
X113742408Y-123761000D01*
X114017592Y-123761000D01*
X114207002Y-123723324D01*
X114207002Y-125620886D01*
X114203445Y-125657001D01*
X114217636Y-125801086D01*
X114243336Y-125885806D01*
X114251374Y-125912303D01*
X114237068Y-125946842D01*
X114180000Y-126233740D01*
X114180000Y-126526260D01*
X114237068Y-126813158D01*
X114349010Y-127083411D01*
X114511525Y-127326632D01*
X114609893Y-127425000D01*
X113996274Y-127425000D01*
X114022068Y-127362727D01*
X114058000Y-127182087D01*
X114058000Y-126997909D01*
X114022068Y-126817269D01*
X113951586Y-126647109D01*
X113849262Y-126493970D01*
X113719028Y-126363736D01*
X113565889Y-126261412D01*
X113395729Y-126190930D01*
X113230515Y-126158067D01*
X111561021Y-124488572D01*
X111609586Y-124415889D01*
X111680068Y-124245729D01*
X111716000Y-124065089D01*
X111716000Y-123880911D01*
X111680068Y-123700271D01*
X111609586Y-123530111D01*
X111507262Y-123376972D01*
X111377028Y-123246738D01*
X111223889Y-123144414D01*
X111189924Y-123130346D01*
X109271534Y-121211956D01*
X109243817Y-121178183D01*
X109109059Y-121067589D01*
X108955313Y-120985411D01*
X108788490Y-120934805D01*
X108658477Y-120922000D01*
X108658469Y-120922000D01*
X108615000Y-120917719D01*
X108571531Y-120922000D01*
X106501579Y-120922000D01*
X104276617Y-118697039D01*
X104366911Y-118715000D01*
X104551089Y-118715000D01*
X104731729Y-118679068D01*
X104901889Y-118608586D01*
X105055028Y-118506262D01*
X105185262Y-118376028D01*
X105287586Y-118222889D01*
X105358068Y-118052729D01*
X105394000Y-117872089D01*
X105394000Y-117687911D01*
X105358068Y-117507271D01*
X105287586Y-117337111D01*
X105260117Y-117296000D01*
X105401089Y-117296000D01*
X105581729Y-117260068D01*
X105751889Y-117189586D01*
X105905028Y-117087262D01*
X106035262Y-116957028D01*
X106137586Y-116803889D01*
X106208068Y-116633729D01*
X106244000Y-116453089D01*
X106244000Y-116268911D01*
X106208068Y-116088271D01*
X106137586Y-115918111D01*
X106048990Y-115785517D01*
X106048990Y-115178000D01*
X108220156Y-115178000D01*
X110265359Y-117223203D01*
G04 #@! TA.AperFunction,Conductor*
D24*
G36*
X110265359Y-117223203D02*
G01*
X110288375Y-117251248D01*
X110400293Y-117343097D01*
X110527980Y-117411347D01*
X110666528Y-117453375D01*
X110774508Y-117464010D01*
X110774517Y-117464010D01*
X110810612Y-117467565D01*
X110846707Y-117464010D01*
X112874564Y-117464010D01*
X113837553Y-118427000D01*
X113742408Y-118427000D01*
X113472510Y-118480686D01*
X113218273Y-118585995D01*
X112989465Y-118738880D01*
X112794880Y-118933465D01*
X112641995Y-119162273D01*
X112536686Y-119416510D01*
X112483000Y-119686408D01*
X112483000Y-119961592D01*
X112536686Y-120231490D01*
X112641995Y-120485727D01*
X112794880Y-120714535D01*
X112989465Y-120909120D01*
X113218273Y-121062005D01*
X113295515Y-121094000D01*
X113218273Y-121125995D01*
X112989465Y-121278880D01*
X112794880Y-121473465D01*
X112641995Y-121702273D01*
X112536686Y-121956510D01*
X112483000Y-122226408D01*
X112483000Y-122501592D01*
X112536686Y-122771490D01*
X112641995Y-123025727D01*
X112794880Y-123254535D01*
X112989465Y-123449120D01*
X113218273Y-123602005D01*
X113472510Y-123707314D01*
X113742408Y-123761000D01*
X114017592Y-123761000D01*
X114207002Y-123723324D01*
X114207002Y-125620886D01*
X114203445Y-125657001D01*
X114217636Y-125801086D01*
X114243336Y-125885806D01*
X114251374Y-125912303D01*
X114237068Y-125946842D01*
X114180000Y-126233740D01*
X114180000Y-126526260D01*
X114237068Y-126813158D01*
X114349010Y-127083411D01*
X114511525Y-127326632D01*
X114609893Y-127425000D01*
X113996274Y-127425000D01*
X114022068Y-127362727D01*
X114058000Y-127182087D01*
X114058000Y-126997909D01*
X114022068Y-126817269D01*
X113951586Y-126647109D01*
X113849262Y-126493970D01*
X113719028Y-126363736D01*
X113565889Y-126261412D01*
X113395729Y-126190930D01*
X113230515Y-126158067D01*
X111561021Y-124488572D01*
X111609586Y-124415889D01*
X111680068Y-124245729D01*
X111716000Y-124065089D01*
X111716000Y-123880911D01*
X111680068Y-123700271D01*
X111609586Y-123530111D01*
X111507262Y-123376972D01*
X111377028Y-123246738D01*
X111223889Y-123144414D01*
X111189924Y-123130346D01*
X109271534Y-121211956D01*
X109243817Y-121178183D01*
X109109059Y-121067589D01*
X108955313Y-120985411D01*
X108788490Y-120934805D01*
X108658477Y-120922000D01*
X108658469Y-120922000D01*
X108615000Y-120917719D01*
X108571531Y-120922000D01*
X106501579Y-120922000D01*
X104276617Y-118697039D01*
X104366911Y-118715000D01*
X104551089Y-118715000D01*
X104731729Y-118679068D01*
X104901889Y-118608586D01*
X105055028Y-118506262D01*
X105185262Y-118376028D01*
X105287586Y-118222889D01*
X105358068Y-118052729D01*
X105394000Y-117872089D01*
X105394000Y-117687911D01*
X105358068Y-117507271D01*
X105287586Y-117337111D01*
X105260117Y-117296000D01*
X105401089Y-117296000D01*
X105581729Y-117260068D01*
X105751889Y-117189586D01*
X105905028Y-117087262D01*
X106035262Y-116957028D01*
X106137586Y-116803889D01*
X106208068Y-116633729D01*
X106244000Y-116453089D01*
X106244000Y-116268911D01*
X106208068Y-116088271D01*
X106137586Y-115918111D01*
X106048990Y-115785517D01*
X106048990Y-115178000D01*
X108220156Y-115178000D01*
X110265359Y-117223203D01*
G37*
G04 #@! TD.AperFunction*
D23*
X100545746Y-120420193D02*
X100568762Y-120448238D01*
X100680680Y-120540087D01*
X100808366Y-120608337D01*
X100946915Y-120650365D01*
X101091000Y-120664556D01*
X101127105Y-120661000D01*
X103171724Y-120661000D01*
X107639914Y-125129191D01*
X107662930Y-125157236D01*
X107774848Y-125249085D01*
X107902535Y-125317335D01*
X108039886Y-125359000D01*
X108041083Y-125359363D01*
X108185168Y-125373554D01*
X108221273Y-125369998D01*
X110363554Y-125369998D01*
X112191069Y-127197513D01*
X112223932Y-127362727D01*
X112249726Y-127425000D01*
X107697447Y-127425000D01*
X107409928Y-127137481D01*
X107445889Y-127122586D01*
X107599028Y-127020262D01*
X107729262Y-126890028D01*
X107831586Y-126736889D01*
X107902068Y-126566729D01*
X107938000Y-126386089D01*
X107938000Y-126201911D01*
X107902068Y-126021271D01*
X107831586Y-125851111D01*
X107729262Y-125697972D01*
X107599028Y-125567738D01*
X107445889Y-125465414D01*
X107275729Y-125394932D01*
X107095089Y-125359000D01*
X106910911Y-125359000D01*
X106730271Y-125394932D01*
X106560111Y-125465414D01*
X106420049Y-125559000D01*
X106086105Y-125559000D01*
X106050000Y-125555444D01*
X106013895Y-125559000D01*
X103929447Y-125559000D01*
X102064931Y-123694484D01*
X102032067Y-123529270D01*
X101961585Y-123359110D01*
X101859261Y-123205971D01*
X101729027Y-123075737D01*
X101575888Y-122973413D01*
X101405728Y-122902931D01*
X101225088Y-122866999D01*
X101040910Y-122866999D01*
X100860270Y-122902931D01*
X100690110Y-122973413D01*
X100536971Y-123075737D01*
X100429077Y-123183631D01*
X99692000Y-122446554D01*
X99692000Y-119566446D01*
X100545746Y-120420193D01*
G04 #@! TA.AperFunction,Conductor*
D24*
G36*
X100545746Y-120420193D02*
G01*
X100568762Y-120448238D01*
X100680680Y-120540087D01*
X100808366Y-120608337D01*
X100946915Y-120650365D01*
X101091000Y-120664556D01*
X101127105Y-120661000D01*
X103171724Y-120661000D01*
X107639914Y-125129191D01*
X107662930Y-125157236D01*
X107774848Y-125249085D01*
X107902535Y-125317335D01*
X108039886Y-125359000D01*
X108041083Y-125359363D01*
X108185168Y-125373554D01*
X108221273Y-125369998D01*
X110363554Y-125369998D01*
X112191069Y-127197513D01*
X112223932Y-127362727D01*
X112249726Y-127425000D01*
X107697447Y-127425000D01*
X107409928Y-127137481D01*
X107445889Y-127122586D01*
X107599028Y-127020262D01*
X107729262Y-126890028D01*
X107831586Y-126736889D01*
X107902068Y-126566729D01*
X107938000Y-126386089D01*
X107938000Y-126201911D01*
X107902068Y-126021271D01*
X107831586Y-125851111D01*
X107729262Y-125697972D01*
X107599028Y-125567738D01*
X107445889Y-125465414D01*
X107275729Y-125394932D01*
X107095089Y-125359000D01*
X106910911Y-125359000D01*
X106730271Y-125394932D01*
X106560111Y-125465414D01*
X106420049Y-125559000D01*
X106086105Y-125559000D01*
X106050000Y-125555444D01*
X106013895Y-125559000D01*
X103929447Y-125559000D01*
X102064931Y-123694484D01*
X102032067Y-123529270D01*
X101961585Y-123359110D01*
X101859261Y-123205971D01*
X101729027Y-123075737D01*
X101575888Y-122973413D01*
X101405728Y-122902931D01*
X101225088Y-122866999D01*
X101040910Y-122866999D01*
X100860270Y-122902931D01*
X100690110Y-122973413D01*
X100536971Y-123075737D01*
X100429077Y-123183631D01*
X99692000Y-122446554D01*
X99692000Y-119566446D01*
X100545746Y-120420193D01*
G37*
G04 #@! TD.AperFunction*
D23*
X116613748Y-119809858D02*
X116599605Y-119824000D01*
X116613748Y-119838143D01*
X116434143Y-120017748D01*
X116420000Y-120003605D01*
X116405858Y-120017748D01*
X116226253Y-119838143D01*
X116240395Y-119824000D01*
X116226253Y-119809858D01*
X116405858Y-119630253D01*
X116420000Y-119644395D01*
X116434143Y-119630253D01*
X116613748Y-119809858D01*
G04 #@! TA.AperFunction,Conductor*
D24*
G36*
X116613748Y-119809858D02*
G01*
X116599605Y-119824000D01*
X116613748Y-119838143D01*
X116434143Y-120017748D01*
X116420000Y-120003605D01*
X116405858Y-120017748D01*
X116226253Y-119838143D01*
X116240395Y-119824000D01*
X116226253Y-119809858D01*
X116405858Y-119630253D01*
X116420000Y-119644395D01*
X116434143Y-119630253D01*
X116613748Y-119809858D01*
G37*
G04 #@! TD.AperFunction*
D23*
X104066002Y-115693552D02*
X103964808Y-115794746D01*
X103936762Y-115817763D01*
X103844913Y-115929681D01*
X103776663Y-116057368D01*
X103749700Y-116146254D01*
X103734635Y-116195915D01*
X103720444Y-116340000D01*
X103724000Y-116376105D01*
X103724001Y-117197048D01*
X103630414Y-117337111D01*
X103559932Y-117507271D01*
X103524000Y-117687911D01*
X103524000Y-117872089D01*
X103559932Y-118052729D01*
X103630414Y-118222889D01*
X103704311Y-118333484D01*
X103577468Y-118320991D01*
X103577460Y-118320991D01*
X103533991Y-118316710D01*
X103490522Y-118320991D01*
X102144463Y-118320991D01*
X102096265Y-118288786D01*
X101907907Y-118210765D01*
X101707948Y-118170991D01*
X101504070Y-118170991D01*
X101304111Y-118210765D01*
X101149000Y-118275015D01*
X101149000Y-118126061D01*
X101109226Y-117926102D01*
X101031205Y-117737744D01*
X100917937Y-117568226D01*
X100773774Y-117424063D01*
X100604256Y-117310795D01*
X100415898Y-117232774D01*
X100340236Y-117217724D01*
X100508249Y-117105462D01*
X100652412Y-116961299D01*
X100765680Y-116791781D01*
X100843701Y-116603423D01*
X100883475Y-116403464D01*
X100883475Y-116199586D01*
X100843701Y-115999627D01*
X100765680Y-115811269D01*
X100652412Y-115641751D01*
X100508249Y-115497588D01*
X100338731Y-115384320D01*
X100150373Y-115306299D01*
X99950414Y-115266525D01*
X99746536Y-115266525D01*
X99546577Y-115306299D01*
X99358219Y-115384320D01*
X99188701Y-115497588D01*
X99044538Y-115641751D01*
X98931270Y-115811269D01*
X98853249Y-115999627D01*
X98825191Y-116140684D01*
X98516060Y-115780386D01*
X101020198Y-113276249D01*
X101048238Y-113253237D01*
X101071251Y-113225196D01*
X101071254Y-113225193D01*
X101140088Y-113141319D01*
X101208338Y-113013633D01*
X101250366Y-112875084D01*
X101264557Y-112730999D01*
X101261001Y-112694894D01*
X101261001Y-108181447D01*
X103655198Y-105787251D01*
X103683238Y-105764239D01*
X103706251Y-105736198D01*
X103706254Y-105736195D01*
X103775088Y-105652321D01*
X103843338Y-105524635D01*
X103885366Y-105386086D01*
X103899557Y-105242001D01*
X103896001Y-105205896D01*
X103896001Y-104787445D01*
X104066001Y-104617445D01*
X104066002Y-115693552D01*
G04 #@! TA.AperFunction,Conductor*
D24*
G36*
X104066002Y-115693552D02*
G01*
X103964808Y-115794746D01*
X103936762Y-115817763D01*
X103844913Y-115929681D01*
X103776663Y-116057368D01*
X103749700Y-116146254D01*
X103734635Y-116195915D01*
X103720444Y-116340000D01*
X103724000Y-116376105D01*
X103724001Y-117197048D01*
X103630414Y-117337111D01*
X103559932Y-117507271D01*
X103524000Y-117687911D01*
X103524000Y-117872089D01*
X103559932Y-118052729D01*
X103630414Y-118222889D01*
X103704311Y-118333484D01*
X103577468Y-118320991D01*
X103577460Y-118320991D01*
X103533991Y-118316710D01*
X103490522Y-118320991D01*
X102144463Y-118320991D01*
X102096265Y-118288786D01*
X101907907Y-118210765D01*
X101707948Y-118170991D01*
X101504070Y-118170991D01*
X101304111Y-118210765D01*
X101149000Y-118275015D01*
X101149000Y-118126061D01*
X101109226Y-117926102D01*
X101031205Y-117737744D01*
X100917937Y-117568226D01*
X100773774Y-117424063D01*
X100604256Y-117310795D01*
X100415898Y-117232774D01*
X100340236Y-117217724D01*
X100508249Y-117105462D01*
X100652412Y-116961299D01*
X100765680Y-116791781D01*
X100843701Y-116603423D01*
X100883475Y-116403464D01*
X100883475Y-116199586D01*
X100843701Y-115999627D01*
X100765680Y-115811269D01*
X100652412Y-115641751D01*
X100508249Y-115497588D01*
X100338731Y-115384320D01*
X100150373Y-115306299D01*
X99950414Y-115266525D01*
X99746536Y-115266525D01*
X99546577Y-115306299D01*
X99358219Y-115384320D01*
X99188701Y-115497588D01*
X99044538Y-115641751D01*
X98931270Y-115811269D01*
X98853249Y-115999627D01*
X98825191Y-116140684D01*
X98516060Y-115780386D01*
X101020198Y-113276249D01*
X101048238Y-113253237D01*
X101071251Y-113225196D01*
X101071254Y-113225193D01*
X101140088Y-113141319D01*
X101208338Y-113013633D01*
X101250366Y-112875084D01*
X101264557Y-112730999D01*
X101261001Y-112694894D01*
X101261001Y-108181447D01*
X103655198Y-105787251D01*
X103683238Y-105764239D01*
X103706251Y-105736198D01*
X103706254Y-105736195D01*
X103775088Y-105652321D01*
X103843338Y-105524635D01*
X103885366Y-105386086D01*
X103899557Y-105242001D01*
X103896001Y-105205896D01*
X103896001Y-104787445D01*
X104066001Y-104617445D01*
X104066002Y-115693552D01*
G37*
G04 #@! TD.AperFunction*
D23*
X103134027Y-101814683D02*
X103092738Y-101855972D01*
X102990414Y-102009111D01*
X102919932Y-102179271D01*
X102884000Y-102359911D01*
X102884000Y-102544089D01*
X102919932Y-102724729D01*
X102990414Y-102894889D01*
X103092738Y-103048028D01*
X103196045Y-103151335D01*
X103145414Y-103227111D01*
X103074932Y-103397271D01*
X103042068Y-103562485D01*
X102896807Y-103707747D01*
X102666809Y-103937745D01*
X102638764Y-103960761D01*
X102546915Y-104072679D01*
X102500386Y-104159729D01*
X102478665Y-104200366D01*
X102436636Y-104338914D01*
X102422445Y-104482999D01*
X102426001Y-104519104D01*
X102426001Y-104937554D01*
X100031809Y-107331747D01*
X100003764Y-107354763D01*
X99911915Y-107466681D01*
X99876764Y-107532444D01*
X99843665Y-107594368D01*
X99801636Y-107732916D01*
X99787445Y-107877001D01*
X99791002Y-107913116D01*
X99791002Y-109753535D01*
X99653271Y-109780932D01*
X99483111Y-109851414D01*
X99329972Y-109953738D01*
X99199738Y-110083972D01*
X99097414Y-110237111D01*
X99026932Y-110407271D01*
X99005304Y-110516000D01*
X97659000Y-110516000D01*
X97659000Y-104822000D01*
X97668489Y-104822000D01*
X97849129Y-104786068D01*
X98019289Y-104715586D01*
X98172428Y-104613262D01*
X98302662Y-104483028D01*
X98404986Y-104329889D01*
X98475468Y-104159729D01*
X98477051Y-104151769D01*
X98550111Y-104200586D01*
X98720271Y-104271068D01*
X98900911Y-104307000D01*
X99085089Y-104307000D01*
X99265729Y-104271068D01*
X99435889Y-104200586D01*
X99589028Y-104098262D01*
X99719262Y-103968028D01*
X99821586Y-103814889D01*
X99892068Y-103644729D01*
X99924932Y-103479515D01*
X102265192Y-101139255D01*
X102293237Y-101116239D01*
X102357401Y-101038056D01*
X103134027Y-101814683D01*
G04 #@! TA.AperFunction,Conductor*
D24*
G36*
X103134027Y-101814683D02*
G01*
X103092738Y-101855972D01*
X102990414Y-102009111D01*
X102919932Y-102179271D01*
X102884000Y-102359911D01*
X102884000Y-102544089D01*
X102919932Y-102724729D01*
X102990414Y-102894889D01*
X103092738Y-103048028D01*
X103196045Y-103151335D01*
X103145414Y-103227111D01*
X103074932Y-103397271D01*
X103042068Y-103562485D01*
X102896807Y-103707747D01*
X102666809Y-103937745D01*
X102638764Y-103960761D01*
X102546915Y-104072679D01*
X102500386Y-104159729D01*
X102478665Y-104200366D01*
X102436636Y-104338914D01*
X102422445Y-104482999D01*
X102426001Y-104519104D01*
X102426001Y-104937554D01*
X100031809Y-107331747D01*
X100003764Y-107354763D01*
X99911915Y-107466681D01*
X99876764Y-107532444D01*
X99843665Y-107594368D01*
X99801636Y-107732916D01*
X99787445Y-107877001D01*
X99791002Y-107913116D01*
X99791002Y-109753535D01*
X99653271Y-109780932D01*
X99483111Y-109851414D01*
X99329972Y-109953738D01*
X99199738Y-110083972D01*
X99097414Y-110237111D01*
X99026932Y-110407271D01*
X99005304Y-110516000D01*
X97659000Y-110516000D01*
X97659000Y-104822000D01*
X97668489Y-104822000D01*
X97849129Y-104786068D01*
X98019289Y-104715586D01*
X98172428Y-104613262D01*
X98302662Y-104483028D01*
X98404986Y-104329889D01*
X98475468Y-104159729D01*
X98477051Y-104151769D01*
X98550111Y-104200586D01*
X98720271Y-104271068D01*
X98900911Y-104307000D01*
X99085089Y-104307000D01*
X99265729Y-104271068D01*
X99435889Y-104200586D01*
X99589028Y-104098262D01*
X99719262Y-103968028D01*
X99821586Y-103814889D01*
X99892068Y-103644729D01*
X99924932Y-103479515D01*
X102265192Y-101139255D01*
X102293237Y-101116239D01*
X102357401Y-101038056D01*
X103134027Y-101814683D01*
G37*
G04 #@! TD.AperFunction*
D23*
X121765000Y-97765001D02*
X111536105Y-97765001D01*
X111500000Y-97761445D01*
X111463895Y-97765001D01*
X111355915Y-97775636D01*
X111217367Y-97817664D01*
X111089680Y-97885914D01*
X110977762Y-97977763D01*
X110885913Y-98089681D01*
X110817663Y-98217368D01*
X110775635Y-98355916D01*
X110761444Y-98500001D01*
X110765001Y-98536116D01*
X110765001Y-100665556D01*
X109210200Y-99110756D01*
X109210200Y-98395646D01*
X111924208Y-95681639D01*
X111952248Y-95658627D01*
X111975261Y-95630586D01*
X111975264Y-95630583D01*
X112044098Y-95546709D01*
X112044099Y-95546708D01*
X112112348Y-95419022D01*
X112154376Y-95280474D01*
X112165011Y-95172494D01*
X112165011Y-95172493D01*
X112168567Y-95136389D01*
X112165011Y-95100284D01*
X112165011Y-94057000D01*
X112237089Y-94057000D01*
X112417729Y-94021068D01*
X112587889Y-93950586D01*
X112741028Y-93848262D01*
X112871262Y-93718028D01*
X112973586Y-93564889D01*
X113044068Y-93394729D01*
X113059374Y-93317783D01*
X113565181Y-92811976D01*
X116156000Y-92811976D01*
X116156000Y-93070024D01*
X116206342Y-93323113D01*
X116305093Y-93561518D01*
X116448456Y-93776077D01*
X116630923Y-93958544D01*
X116845482Y-94101907D01*
X117083887Y-94200658D01*
X117336976Y-94251000D01*
X117595024Y-94251000D01*
X117848113Y-94200658D01*
X118086518Y-94101907D01*
X118268513Y-93980303D01*
X118339815Y-94067185D01*
X118436506Y-94146537D01*
X118546820Y-94205502D01*
X118666518Y-94241812D01*
X118791000Y-94254072D01*
X120141000Y-94254072D01*
X120265482Y-94241812D01*
X120385180Y-94205502D01*
X120495494Y-94146537D01*
X120592185Y-94067185D01*
X120671537Y-93970494D01*
X120730502Y-93860180D01*
X120766812Y-93740482D01*
X120779072Y-93616000D01*
X120779072Y-92266000D01*
X120766812Y-92141518D01*
X120730502Y-92021820D01*
X120671537Y-91911506D01*
X120592185Y-91814815D01*
X120495494Y-91735463D01*
X120385180Y-91676498D01*
X120265482Y-91640188D01*
X120141000Y-91627928D01*
X118791000Y-91627928D01*
X118666518Y-91640188D01*
X118546820Y-91676498D01*
X118436506Y-91735463D01*
X118339815Y-91814815D01*
X118268513Y-91901697D01*
X118086518Y-91780093D01*
X117848113Y-91681342D01*
X117595024Y-91631000D01*
X117336976Y-91631000D01*
X117083887Y-91681342D01*
X116845482Y-91780093D01*
X116630923Y-91923456D01*
X116448456Y-92105923D01*
X116305093Y-92320482D01*
X116206342Y-92558887D01*
X116156000Y-92811976D01*
X113565181Y-92811976D01*
X116155810Y-90221347D01*
X116185764Y-90196764D01*
X116283862Y-90077233D01*
X116356754Y-89940860D01*
X116372100Y-89890271D01*
X116401642Y-89792887D01*
X116412009Y-89687622D01*
X116413000Y-89677561D01*
X116413000Y-89677556D01*
X116416797Y-89639000D01*
X116413000Y-89600444D01*
X116413000Y-87876191D01*
X116458506Y-87913537D01*
X116568820Y-87972502D01*
X116688518Y-88008812D01*
X116813000Y-88021072D01*
X117202250Y-88018000D01*
X117361000Y-87859250D01*
X117361000Y-86835000D01*
X117341000Y-86835000D01*
X117341000Y-86581000D01*
X117361000Y-86581000D01*
X117361000Y-86561000D01*
X117615000Y-86561000D01*
X117615000Y-86581000D01*
X117635000Y-86581000D01*
X117635000Y-86835000D01*
X117615000Y-86835000D01*
X117615000Y-87859250D01*
X117773750Y-88018000D01*
X118163000Y-88021072D01*
X118287482Y-88008812D01*
X118407180Y-87972502D01*
X118517494Y-87913537D01*
X118614185Y-87834185D01*
X118685487Y-87747303D01*
X118867482Y-87868907D01*
X119105887Y-87967658D01*
X119358976Y-88018000D01*
X119617024Y-88018000D01*
X119870113Y-87967658D01*
X120108518Y-87868907D01*
X120323077Y-87725544D01*
X120505544Y-87543077D01*
X120648907Y-87328518D01*
X120747658Y-87090113D01*
X120798000Y-86837024D01*
X120798000Y-86578976D01*
X120747658Y-86325887D01*
X120648907Y-86087482D01*
X120505544Y-85872923D01*
X120323077Y-85690456D01*
X120108518Y-85547093D01*
X119870113Y-85448342D01*
X119617024Y-85398000D01*
X119358976Y-85398000D01*
X119105887Y-85448342D01*
X118867482Y-85547093D01*
X118685487Y-85668697D01*
X118614185Y-85581815D01*
X118517494Y-85502463D01*
X118407180Y-85443498D01*
X118287482Y-85407188D01*
X118163000Y-85394928D01*
X117940473Y-85396684D01*
X118646811Y-84690346D01*
X118676657Y-84665852D01*
X118729018Y-84700839D01*
X118973428Y-84802077D01*
X119232893Y-84853688D01*
X119497441Y-84853688D01*
X119756906Y-84802077D01*
X120001316Y-84700839D01*
X120221279Y-84553864D01*
X120408343Y-84366800D01*
X120555318Y-84146837D01*
X120656556Y-83902427D01*
X120708167Y-83642962D01*
X120708167Y-83378414D01*
X120691481Y-83294531D01*
X121765001Y-82221011D01*
X121765000Y-97765001D01*
G04 #@! TA.AperFunction,Conductor*
D24*
G36*
X121765000Y-97765001D02*
G01*
X111536105Y-97765001D01*
X111500000Y-97761445D01*
X111463895Y-97765001D01*
X111355915Y-97775636D01*
X111217367Y-97817664D01*
X111089680Y-97885914D01*
X110977762Y-97977763D01*
X110885913Y-98089681D01*
X110817663Y-98217368D01*
X110775635Y-98355916D01*
X110761444Y-98500001D01*
X110765001Y-98536116D01*
X110765001Y-100665556D01*
X109210200Y-99110756D01*
X109210200Y-98395646D01*
X111924208Y-95681639D01*
X111952248Y-95658627D01*
X111975261Y-95630586D01*
X111975264Y-95630583D01*
X112044098Y-95546709D01*
X112044099Y-95546708D01*
X112112348Y-95419022D01*
X112154376Y-95280474D01*
X112165011Y-95172494D01*
X112165011Y-95172493D01*
X112168567Y-95136389D01*
X112165011Y-95100284D01*
X112165011Y-94057000D01*
X112237089Y-94057000D01*
X112417729Y-94021068D01*
X112587889Y-93950586D01*
X112741028Y-93848262D01*
X112871262Y-93718028D01*
X112973586Y-93564889D01*
X113044068Y-93394729D01*
X113059374Y-93317783D01*
X113565181Y-92811976D01*
X116156000Y-92811976D01*
X116156000Y-93070024D01*
X116206342Y-93323113D01*
X116305093Y-93561518D01*
X116448456Y-93776077D01*
X116630923Y-93958544D01*
X116845482Y-94101907D01*
X117083887Y-94200658D01*
X117336976Y-94251000D01*
X117595024Y-94251000D01*
X117848113Y-94200658D01*
X118086518Y-94101907D01*
X118268513Y-93980303D01*
X118339815Y-94067185D01*
X118436506Y-94146537D01*
X118546820Y-94205502D01*
X118666518Y-94241812D01*
X118791000Y-94254072D01*
X120141000Y-94254072D01*
X120265482Y-94241812D01*
X120385180Y-94205502D01*
X120495494Y-94146537D01*
X120592185Y-94067185D01*
X120671537Y-93970494D01*
X120730502Y-93860180D01*
X120766812Y-93740482D01*
X120779072Y-93616000D01*
X120779072Y-92266000D01*
X120766812Y-92141518D01*
X120730502Y-92021820D01*
X120671537Y-91911506D01*
X120592185Y-91814815D01*
X120495494Y-91735463D01*
X120385180Y-91676498D01*
X120265482Y-91640188D01*
X120141000Y-91627928D01*
X118791000Y-91627928D01*
X118666518Y-91640188D01*
X118546820Y-91676498D01*
X118436506Y-91735463D01*
X118339815Y-91814815D01*
X118268513Y-91901697D01*
X118086518Y-91780093D01*
X117848113Y-91681342D01*
X117595024Y-91631000D01*
X117336976Y-91631000D01*
X117083887Y-91681342D01*
X116845482Y-91780093D01*
X116630923Y-91923456D01*
X116448456Y-92105923D01*
X116305093Y-92320482D01*
X116206342Y-92558887D01*
X116156000Y-92811976D01*
X113565181Y-92811976D01*
X116155810Y-90221347D01*
X116185764Y-90196764D01*
X116283862Y-90077233D01*
X116356754Y-89940860D01*
X116372100Y-89890271D01*
X116401642Y-89792887D01*
X116412009Y-89687622D01*
X116413000Y-89677561D01*
X116413000Y-89677556D01*
X116416797Y-89639000D01*
X116413000Y-89600444D01*
X116413000Y-87876191D01*
X116458506Y-87913537D01*
X116568820Y-87972502D01*
X116688518Y-88008812D01*
X116813000Y-88021072D01*
X117202250Y-88018000D01*
X117361000Y-87859250D01*
X117361000Y-86835000D01*
X117341000Y-86835000D01*
X117341000Y-86581000D01*
X117361000Y-86581000D01*
X117361000Y-86561000D01*
X117615000Y-86561000D01*
X117615000Y-86581000D01*
X117635000Y-86581000D01*
X117635000Y-86835000D01*
X117615000Y-86835000D01*
X117615000Y-87859250D01*
X117773750Y-88018000D01*
X118163000Y-88021072D01*
X118287482Y-88008812D01*
X118407180Y-87972502D01*
X118517494Y-87913537D01*
X118614185Y-87834185D01*
X118685487Y-87747303D01*
X118867482Y-87868907D01*
X119105887Y-87967658D01*
X119358976Y-88018000D01*
X119617024Y-88018000D01*
X119870113Y-87967658D01*
X120108518Y-87868907D01*
X120323077Y-87725544D01*
X120505544Y-87543077D01*
X120648907Y-87328518D01*
X120747658Y-87090113D01*
X120798000Y-86837024D01*
X120798000Y-86578976D01*
X120747658Y-86325887D01*
X120648907Y-86087482D01*
X120505544Y-85872923D01*
X120323077Y-85690456D01*
X120108518Y-85547093D01*
X119870113Y-85448342D01*
X119617024Y-85398000D01*
X119358976Y-85398000D01*
X119105887Y-85448342D01*
X118867482Y-85547093D01*
X118685487Y-85668697D01*
X118614185Y-85581815D01*
X118517494Y-85502463D01*
X118407180Y-85443498D01*
X118287482Y-85407188D01*
X118163000Y-85394928D01*
X117940473Y-85396684D01*
X118646811Y-84690346D01*
X118676657Y-84665852D01*
X118729018Y-84700839D01*
X118973428Y-84802077D01*
X119232893Y-84853688D01*
X119497441Y-84853688D01*
X119756906Y-84802077D01*
X120001316Y-84700839D01*
X120221279Y-84553864D01*
X120408343Y-84366800D01*
X120555318Y-84146837D01*
X120656556Y-83902427D01*
X120708167Y-83642962D01*
X120708167Y-83378414D01*
X120691481Y-83294531D01*
X121765001Y-82221011D01*
X121765000Y-97765001D01*
G37*
G04 #@! TD.AperFunction*
D23*
X104387827Y-89276877D02*
X104540966Y-89379201D01*
X104711126Y-89449683D01*
X104891766Y-89485615D01*
X105075944Y-89485615D01*
X105256584Y-89449683D01*
X105426744Y-89379201D01*
X105566806Y-89285615D01*
X107248728Y-89285615D01*
X107986043Y-90022930D01*
X107845271Y-90050932D01*
X107675111Y-90121414D01*
X107521972Y-90223738D01*
X107391738Y-90353972D01*
X107289414Y-90507111D01*
X107218932Y-90677271D01*
X107183000Y-90857911D01*
X107183000Y-91042089D01*
X107218932Y-91222729D01*
X107289414Y-91392889D01*
X107306057Y-91417798D01*
X105551808Y-93172048D01*
X105523762Y-93195065D01*
X105431913Y-93306983D01*
X105363663Y-93434670D01*
X105343087Y-93502500D01*
X105321635Y-93573217D01*
X105307444Y-93717302D01*
X105311000Y-93753407D01*
X105311001Y-99711048D01*
X105310252Y-99712169D01*
X104291000Y-99422942D01*
X104291000Y-89180050D01*
X104387827Y-89276877D01*
G04 #@! TA.AperFunction,Conductor*
D24*
G36*
X104387827Y-89276877D02*
G01*
X104540966Y-89379201D01*
X104711126Y-89449683D01*
X104891766Y-89485615D01*
X105075944Y-89485615D01*
X105256584Y-89449683D01*
X105426744Y-89379201D01*
X105566806Y-89285615D01*
X107248728Y-89285615D01*
X107986043Y-90022930D01*
X107845271Y-90050932D01*
X107675111Y-90121414D01*
X107521972Y-90223738D01*
X107391738Y-90353972D01*
X107289414Y-90507111D01*
X107218932Y-90677271D01*
X107183000Y-90857911D01*
X107183000Y-91042089D01*
X107218932Y-91222729D01*
X107289414Y-91392889D01*
X107306057Y-91417798D01*
X105551808Y-93172048D01*
X105523762Y-93195065D01*
X105431913Y-93306983D01*
X105363663Y-93434670D01*
X105343087Y-93502500D01*
X105321635Y-93573217D01*
X105307444Y-93717302D01*
X105311000Y-93753407D01*
X105311001Y-99711048D01*
X105310252Y-99712169D01*
X104291000Y-99422942D01*
X104291000Y-89180050D01*
X104387827Y-89276877D01*
G37*
G04 #@! TD.AperFunction*
D23*
X88611746Y-88343193D02*
X88634762Y-88371238D01*
X88746680Y-88463087D01*
X88874367Y-88531337D01*
X88951586Y-88554761D01*
X89012914Y-88573365D01*
X89156999Y-88587556D01*
X89193104Y-88584000D01*
X90698895Y-88584000D01*
X90735000Y-88587556D01*
X90771105Y-88584000D01*
X90879085Y-88573365D01*
X91017633Y-88531337D01*
X91145320Y-88463087D01*
X91257238Y-88371238D01*
X91280258Y-88343188D01*
X91662447Y-87961000D01*
X92778650Y-87961000D01*
X92736775Y-88023671D01*
X92666293Y-88193831D01*
X92630361Y-88374471D01*
X92630361Y-88558649D01*
X92640902Y-88611644D01*
X92636443Y-88656922D01*
X92640000Y-88693037D01*
X92640000Y-96885358D01*
X92481271Y-96916932D01*
X92311111Y-96987414D01*
X92157972Y-97089738D01*
X92027738Y-97219972D01*
X91925414Y-97373111D01*
X91854932Y-97543271D01*
X91822935Y-97704131D01*
X91808762Y-97715762D01*
X91781165Y-97749389D01*
X91416808Y-98113746D01*
X91388763Y-98136762D01*
X91296913Y-98248680D01*
X91268413Y-98302000D01*
X90914447Y-98302000D01*
X90334368Y-97721922D01*
X90349762Y-97706528D01*
X90452086Y-97553389D01*
X90522568Y-97383229D01*
X90537874Y-97306283D01*
X91765783Y-96078374D01*
X91842729Y-96063068D01*
X92012889Y-95992586D01*
X92166028Y-95890262D01*
X92296262Y-95760028D01*
X92398586Y-95606889D01*
X92469068Y-95436729D01*
X92505000Y-95256089D01*
X92505000Y-95071911D01*
X92469068Y-94891271D01*
X92398586Y-94721111D01*
X92296262Y-94567972D01*
X92166028Y-94437738D01*
X92012889Y-94335414D01*
X91842729Y-94264932D01*
X91662089Y-94229000D01*
X91477911Y-94229000D01*
X91297271Y-94264932D01*
X91127111Y-94335414D01*
X90973972Y-94437738D01*
X90843738Y-94567972D01*
X90741414Y-94721111D01*
X90670932Y-94891271D01*
X90655626Y-94968217D01*
X89427717Y-96196126D01*
X89350771Y-96211432D01*
X89180611Y-96281914D01*
X89027472Y-96384238D01*
X89012078Y-96399632D01*
X88007001Y-95394555D01*
X88007001Y-87738448D01*
X88611746Y-88343193D01*
G04 #@! TA.AperFunction,Conductor*
D24*
G36*
X88611746Y-88343193D02*
G01*
X88634762Y-88371238D01*
X88746680Y-88463087D01*
X88874367Y-88531337D01*
X88951586Y-88554761D01*
X89012914Y-88573365D01*
X89156999Y-88587556D01*
X89193104Y-88584000D01*
X90698895Y-88584000D01*
X90735000Y-88587556D01*
X90771105Y-88584000D01*
X90879085Y-88573365D01*
X91017633Y-88531337D01*
X91145320Y-88463087D01*
X91257238Y-88371238D01*
X91280258Y-88343188D01*
X91662447Y-87961000D01*
X92778650Y-87961000D01*
X92736775Y-88023671D01*
X92666293Y-88193831D01*
X92630361Y-88374471D01*
X92630361Y-88558649D01*
X92640902Y-88611644D01*
X92636443Y-88656922D01*
X92640000Y-88693037D01*
X92640000Y-96885358D01*
X92481271Y-96916932D01*
X92311111Y-96987414D01*
X92157972Y-97089738D01*
X92027738Y-97219972D01*
X91925414Y-97373111D01*
X91854932Y-97543271D01*
X91822935Y-97704131D01*
X91808762Y-97715762D01*
X91781165Y-97749389D01*
X91416808Y-98113746D01*
X91388763Y-98136762D01*
X91296913Y-98248680D01*
X91268413Y-98302000D01*
X90914447Y-98302000D01*
X90334368Y-97721922D01*
X90349762Y-97706528D01*
X90452086Y-97553389D01*
X90522568Y-97383229D01*
X90537874Y-97306283D01*
X91765783Y-96078374D01*
X91842729Y-96063068D01*
X92012889Y-95992586D01*
X92166028Y-95890262D01*
X92296262Y-95760028D01*
X92398586Y-95606889D01*
X92469068Y-95436729D01*
X92505000Y-95256089D01*
X92505000Y-95071911D01*
X92469068Y-94891271D01*
X92398586Y-94721111D01*
X92296262Y-94567972D01*
X92166028Y-94437738D01*
X92012889Y-94335414D01*
X91842729Y-94264932D01*
X91662089Y-94229000D01*
X91477911Y-94229000D01*
X91297271Y-94264932D01*
X91127111Y-94335414D01*
X90973972Y-94437738D01*
X90843738Y-94567972D01*
X90741414Y-94721111D01*
X90670932Y-94891271D01*
X90655626Y-94968217D01*
X89427717Y-96196126D01*
X89350771Y-96211432D01*
X89180611Y-96281914D01*
X89027472Y-96384238D01*
X89012078Y-96399632D01*
X88007001Y-95394555D01*
X88007001Y-87738448D01*
X88611746Y-88343193D01*
G37*
G04 #@! TD.AperFunction*
D23*
X79940080Y-85619304D02*
X79978971Y-85692065D01*
X80077069Y-85811597D01*
X80107023Y-85836180D01*
X80510152Y-86239308D01*
X80534736Y-86269264D01*
X80564687Y-86293844D01*
X81255659Y-86984816D01*
X81280236Y-87014764D01*
X81310184Y-87039342D01*
X81310187Y-87039345D01*
X81310192Y-87039349D01*
X82885001Y-88614159D01*
X82885000Y-90374363D01*
X82779465Y-90444880D01*
X82584880Y-90639465D01*
X82431995Y-90868273D01*
X82400000Y-90945515D01*
X82368005Y-90868273D01*
X82215120Y-90639465D01*
X82020535Y-90444880D01*
X81791727Y-90291995D01*
X81537490Y-90186686D01*
X81267592Y-90133000D01*
X80992408Y-90133000D01*
X80722510Y-90186686D01*
X80468273Y-90291995D01*
X80239465Y-90444880D01*
X80044880Y-90639465D01*
X79891995Y-90868273D01*
X79786686Y-91122510D01*
X79733000Y-91392408D01*
X79733000Y-91667592D01*
X79786686Y-91937490D01*
X79891995Y-92191727D01*
X80044880Y-92420535D01*
X80239465Y-92615120D01*
X80468273Y-92768005D01*
X80545515Y-92800000D01*
X80468273Y-92831995D01*
X80239465Y-92984880D01*
X80044880Y-93179465D01*
X79891995Y-93408273D01*
X79786686Y-93662510D01*
X79733000Y-93932408D01*
X79733000Y-94207592D01*
X79786686Y-94477490D01*
X79891995Y-94731727D01*
X80044880Y-94960535D01*
X80239465Y-95155120D01*
X80468273Y-95308005D01*
X80722510Y-95413314D01*
X80992408Y-95467000D01*
X81267592Y-95467000D01*
X81537490Y-95413314D01*
X81791727Y-95308005D01*
X82020535Y-95155120D01*
X82215120Y-94960535D01*
X82368005Y-94731727D01*
X82397692Y-94660057D01*
X82402364Y-94673023D01*
X82464344Y-94788980D01*
X82704435Y-94855960D01*
X83490395Y-94070000D01*
X82704435Y-93284040D01*
X82464344Y-93351020D01*
X82400515Y-93486760D01*
X82368005Y-93408273D01*
X82215120Y-93179465D01*
X82020535Y-92984880D01*
X81791727Y-92831995D01*
X81714485Y-92800000D01*
X81791727Y-92768005D01*
X82020535Y-92615120D01*
X82215120Y-92420535D01*
X82368005Y-92191727D01*
X82400000Y-92114485D01*
X82431995Y-92191727D01*
X82584880Y-92420535D01*
X82779465Y-92615120D01*
X83008273Y-92768005D01*
X83079943Y-92797692D01*
X83066977Y-92802364D01*
X82951020Y-92864344D01*
X82884040Y-93104435D01*
X83670000Y-93890395D01*
X83684143Y-93876253D01*
X83863748Y-94055858D01*
X83849605Y-94070000D01*
X83863748Y-94084143D01*
X83684143Y-94263748D01*
X83670000Y-94249605D01*
X82884040Y-95035565D01*
X82951020Y-95275656D01*
X83200048Y-95392756D01*
X83467135Y-95459023D01*
X83742017Y-95471910D01*
X84014133Y-95430922D01*
X84273023Y-95337636D01*
X84388980Y-95275656D01*
X84407834Y-95208075D01*
X84436190Y-95231347D01*
X86969842Y-97765000D01*
X78235000Y-97765000D01*
X78235000Y-85546395D01*
X79940080Y-85619304D01*
G04 #@! TA.AperFunction,Conductor*
D24*
G36*
X79940080Y-85619304D02*
G01*
X79978971Y-85692065D01*
X80077069Y-85811597D01*
X80107023Y-85836180D01*
X80510152Y-86239308D01*
X80534736Y-86269264D01*
X80564687Y-86293844D01*
X81255659Y-86984816D01*
X81280236Y-87014764D01*
X81310184Y-87039342D01*
X81310187Y-87039345D01*
X81310192Y-87039349D01*
X82885001Y-88614159D01*
X82885000Y-90374363D01*
X82779465Y-90444880D01*
X82584880Y-90639465D01*
X82431995Y-90868273D01*
X82400000Y-90945515D01*
X82368005Y-90868273D01*
X82215120Y-90639465D01*
X82020535Y-90444880D01*
X81791727Y-90291995D01*
X81537490Y-90186686D01*
X81267592Y-90133000D01*
X80992408Y-90133000D01*
X80722510Y-90186686D01*
X80468273Y-90291995D01*
X80239465Y-90444880D01*
X80044880Y-90639465D01*
X79891995Y-90868273D01*
X79786686Y-91122510D01*
X79733000Y-91392408D01*
X79733000Y-91667592D01*
X79786686Y-91937490D01*
X79891995Y-92191727D01*
X80044880Y-92420535D01*
X80239465Y-92615120D01*
X80468273Y-92768005D01*
X80545515Y-92800000D01*
X80468273Y-92831995D01*
X80239465Y-92984880D01*
X80044880Y-93179465D01*
X79891995Y-93408273D01*
X79786686Y-93662510D01*
X79733000Y-93932408D01*
X79733000Y-94207592D01*
X79786686Y-94477490D01*
X79891995Y-94731727D01*
X80044880Y-94960535D01*
X80239465Y-95155120D01*
X80468273Y-95308005D01*
X80722510Y-95413314D01*
X80992408Y-95467000D01*
X81267592Y-95467000D01*
X81537490Y-95413314D01*
X81791727Y-95308005D01*
X82020535Y-95155120D01*
X82215120Y-94960535D01*
X82368005Y-94731727D01*
X82397692Y-94660057D01*
X82402364Y-94673023D01*
X82464344Y-94788980D01*
X82704435Y-94855960D01*
X83490395Y-94070000D01*
X82704435Y-93284040D01*
X82464344Y-93351020D01*
X82400515Y-93486760D01*
X82368005Y-93408273D01*
X82215120Y-93179465D01*
X82020535Y-92984880D01*
X81791727Y-92831995D01*
X81714485Y-92800000D01*
X81791727Y-92768005D01*
X82020535Y-92615120D01*
X82215120Y-92420535D01*
X82368005Y-92191727D01*
X82400000Y-92114485D01*
X82431995Y-92191727D01*
X82584880Y-92420535D01*
X82779465Y-92615120D01*
X83008273Y-92768005D01*
X83079943Y-92797692D01*
X83066977Y-92802364D01*
X82951020Y-92864344D01*
X82884040Y-93104435D01*
X83670000Y-93890395D01*
X83684143Y-93876253D01*
X83863748Y-94055858D01*
X83849605Y-94070000D01*
X83863748Y-94084143D01*
X83684143Y-94263748D01*
X83670000Y-94249605D01*
X82884040Y-95035565D01*
X82951020Y-95275656D01*
X83200048Y-95392756D01*
X83467135Y-95459023D01*
X83742017Y-95471910D01*
X84014133Y-95430922D01*
X84273023Y-95337636D01*
X84388980Y-95275656D01*
X84407834Y-95208075D01*
X84436190Y-95231347D01*
X86969842Y-97765000D01*
X78235000Y-97765000D01*
X78235000Y-85546395D01*
X79940080Y-85619304D01*
G37*
G04 #@! TD.AperFunction*
D23*
X100665448Y-76869590D02*
X100555729Y-76824143D01*
X100375089Y-76788211D01*
X100190911Y-76788211D01*
X100010271Y-76824143D01*
X99840111Y-76894625D01*
X99686972Y-76996949D01*
X99556738Y-77127183D01*
X99454414Y-77280322D01*
X99383932Y-77450482D01*
X99348000Y-77631122D01*
X99348000Y-77815300D01*
X99383932Y-77995940D01*
X99446233Y-78146348D01*
X97224176Y-80115187D01*
X97157098Y-80115187D01*
X96976458Y-80151119D01*
X96806298Y-80221601D01*
X96653159Y-80323925D01*
X96522925Y-80454159D01*
X96420601Y-80607298D01*
X96350119Y-80777458D01*
X96317255Y-80942673D01*
X96313999Y-80945929D01*
X96313993Y-80945934D01*
X95830471Y-81429456D01*
X95665257Y-81462320D01*
X95507298Y-81527748D01*
X95507298Y-76513403D01*
X95510854Y-76477298D01*
X95510330Y-76471974D01*
X95797658Y-76253220D01*
X95873895Y-76284799D01*
X96133360Y-76336410D01*
X96397908Y-76336410D01*
X96657373Y-76284799D01*
X96901783Y-76183561D01*
X97121746Y-76036586D01*
X97308810Y-75849522D01*
X97356326Y-75778410D01*
X100658905Y-75778410D01*
X100665448Y-76869590D01*
G04 #@! TA.AperFunction,Conductor*
D24*
G36*
X100665448Y-76869590D02*
G01*
X100555729Y-76824143D01*
X100375089Y-76788211D01*
X100190911Y-76788211D01*
X100010271Y-76824143D01*
X99840111Y-76894625D01*
X99686972Y-76996949D01*
X99556738Y-77127183D01*
X99454414Y-77280322D01*
X99383932Y-77450482D01*
X99348000Y-77631122D01*
X99348000Y-77815300D01*
X99383932Y-77995940D01*
X99446233Y-78146348D01*
X97224176Y-80115187D01*
X97157098Y-80115187D01*
X96976458Y-80151119D01*
X96806298Y-80221601D01*
X96653159Y-80323925D01*
X96522925Y-80454159D01*
X96420601Y-80607298D01*
X96350119Y-80777458D01*
X96317255Y-80942673D01*
X96313999Y-80945929D01*
X96313993Y-80945934D01*
X95830471Y-81429456D01*
X95665257Y-81462320D01*
X95507298Y-81527748D01*
X95507298Y-76513403D01*
X95510854Y-76477298D01*
X95510330Y-76471974D01*
X95797658Y-76253220D01*
X95873895Y-76284799D01*
X96133360Y-76336410D01*
X96397908Y-76336410D01*
X96657373Y-76284799D01*
X96901783Y-76183561D01*
X97121746Y-76036586D01*
X97308810Y-75849522D01*
X97356326Y-75778410D01*
X100658905Y-75778410D01*
X100665448Y-76869590D01*
G37*
G04 #@! TD.AperFunction*
M02*
