M48
; DRILL file {KiCad (5.1.9)-1} date 05/10/21 17:03:22
; FORMAT={-:-/ absolute / metric / decimal}
; #@! TF.CreationDate,2021-05-10T17:03:22+09:00
; #@! TF.GenerationSoftware,Kicad,Pcbnew,(5.1.9)-1
FMAT,2
METRIC
T1C0.300
T2C0.400
T3C0.800
T4C0.900
T5C0.910
T6C1.000
%
G90
G05
T1
X79.635Y-121.126
X79.658Y-124.337
X82.491Y-118.218
X84.186Y-87.136
X84.67Y-85.69
X84.721Y-84.575
X85.06Y-122.087
X85.903Y-118.082
X86.346Y-81.248
X86.82Y-86.411
X88.028Y-126.674
X88.142Y-78.636
X88.649Y-129.259
X88.963Y-89.442
X89.3Y-80.056
X89.364Y-94.008
X89.623Y-97.111
X90.682Y-116.476
X91.57Y-95.164
X91.704Y-87.837
X91.911Y-116.649
X91.923Y-83.393
X92.695Y-95.166
X92.754Y-97.816
X92.774Y-108.315
X93.062Y-80.059
X93.565Y-88.467
X93.887Y-112.863
X93.975Y-111.418
X94.031Y-75.736
X94.609Y-97.11
X94.661Y-83.993
X94.731Y-91.35
X95.372Y-81.796
X95.472Y-83.773
X95.709Y-92.284
X95.938Y-82.361
X96.075Y-84.399
X96.856Y-124.668
X97.027Y-82.602
X97.032Y-90.163
X97.249Y-81.05
X97.435Y-83.887
X97.544Y-93.959
X97.576Y-103.887
X97.743Y-90.831
X98.007Y-98.759
X98.157Y-104.954
X98.968Y-82.132
X98.993Y-103.372
X99.437Y-75.682
X99.572Y-98.971
X99.587Y-82.807
X99.926Y-110.68
X100.193Y-83.493
X100.283Y-77.723
X100.302Y-90.479
X100.771Y-99.317
X100.8Y-84.032
X101.133Y-123.802
X102.094Y-80.872
X102.25Y-68.6
X102.375Y-90.778
X102.561Y-104.954
X102.603Y-86.538
X102.629Y-128.536
X103.252Y-108.749
X103.819Y-102.452
X103.974Y-103.67
X104.195Y-90.129
X104.201Y-106.778
X104.319Y-92.851
X104.459Y-117.78
X104.836Y-97.45
X104.984Y-88.551
X105.015Y-84.073
X105.167Y-128.536
X105.309Y-116.361
X105.459Y-87.907
X106.046Y-100.294
X106.103Y-87.309
X106.105Y-78.491
X106.53Y-91.98
X106.574Y-128.955
X106.752Y-106.386
X106.757Y-86.709
X106.86Y-75.014
X107.003Y-126.294
X107.176Y-85.901
X107.857Y-81.973
X108.118Y-90.95
X108.277Y-76.181
X108.627Y-126.46
X108.958Y-91.371
X109.037Y-77.332
X109.075Y-98.379
X110.094Y-81.08
X110.106Y-85.736
X110.586Y-99.892
X110.733Y-72.678
X110.781Y-123.973
X110.973Y-70.409
X111.2Y-88.239
X111.449Y-86.999
X111.675Y-119.234
X112.145Y-93.122
X112.289Y-124.723
X112.291Y-127.146
X112.308Y-74.584
X112.76Y-83.597
X113.123Y-127.09
X114.959Y-71.061
X116.163Y-128.981
T2
X78.593Y-130.561
X78.72Y-127.038
X85.766Y-127.335
X85.912Y-115.726
X86.869Y-124.76
X87.59Y-117.241
X88.484Y-122.082
X90.032Y-128.326
X90.078Y-118.901
X90.078Y-120.643
X90.201Y-130.498
X90.706Y-127.652
X93.915Y-120.577
X94.975Y-107.027
X95.338Y-93.763
X95.737Y-76.937
X96.831Y-97.45
X98.089Y-97.45
X98.957Y-118.228
X99.848Y-116.302
X100.114Y-118.228
X101.606Y-119.206
X107.583Y-119.504
X107.881Y-116.808
X114.201Y-97.135
X116.198Y-90.713
X117.153Y-89.758
X117.367Y-116.235
X121.028Y-97.152
X121.251Y-116.341
X121.276Y-89.388
X121.357Y-123.557
X121.364Y-84.012
T3
X99.706Y-129.921
X102.206Y-129.921
X104.706Y-129.921
T4
X117.466Y-92.941
X117.488Y-86.708
X119.466Y-92.941
X119.488Y-86.708
T5
X80.435Y-81.411
X80.635Y-83.511
X81.13Y-91.53
X81.13Y-94.07
X82.965Y-81.189
X83.165Y-83.289
X83.67Y-91.53
X83.67Y-94.07
X86.21Y-91.53
X86.21Y-94.07
X94.266Y-74.293
X95.134Y-71.907
X96.266Y-74.993
X97.134Y-72.607
X102.866Y-72.607
X103.734Y-74.993
X104.866Y-71.907
X105.734Y-74.293
X113.88Y-119.824
X113.88Y-122.364
X116.42Y-119.824
X116.42Y-122.364
X116.835Y-83.289
X117.035Y-81.189
X118.96Y-119.824
X118.96Y-122.364
X119.365Y-83.511
X119.565Y-81.411
T6
X115.665Y-126.38
X118.205Y-126.38
X120.745Y-126.38
T0
M30
